<?xml version="1.0" encoding="UTF-8" standalone="no"?>
<!-- Created with Inkscape (http://www.inkscape.org/) -->

<svg
   xmlns:dc="http://purl.org/dc/elements/1.1/"
   xmlns:cc="http://creativecommons.org/ns#"
   xmlns:rdf="http://www.w3.org/1999/02/22-rdf-syntax-ns#"
   xmlns:svg="http://www.w3.org/2000/svg"
   xmlns="http://www.w3.org/2000/svg"
   xmlns:sodipodi="http://sodipodi.sourceforge.net/DTD/sodipodi-0.dtd"
   xmlns:inkscape="http://www.inkscape.org/namespaces/inkscape"
   width="512"
   height="512"
   viewBox="0 0 135.46666 135.46667"
   version="1.1"
   id="svg8"
   inkscape:version="0.92.1 r15371"
   sodipodi:docname="sandbox.svg">
  <defs
     id="defs2">
    <inkscape:perspective
       sodipodi:type="inkscape:persp3d"
       inkscape:vp_x="-12620.691 : 74.231658 : 0"
       inkscape:vp_y="0 : 3779.5275 : 0"
       inkscape:vp_z="624.01439 : 131.13731 : 1"
       inkscape:persp3d-origin="668.83546 : -63.337242 : 1"
       id="perspective4578" />
    <inkscape:perspective
       sodipodi:type="inkscape:persp3d"
       inkscape:vp_x="-140.67682 : 283.95938 : 1"
       inkscape:vp_y="0 : 3779.5275 : 0"
       inkscape:vp_z="599.90108 : 284.87009 : 1"
       inkscape:persp3d-origin="350.97215 : 141.95806 : 1"
       id="perspective4515" />
    <inkscape:perspective
       sodipodi:type="inkscape:persp3d"
       inkscape:vp_x="-3339.2242 : 19.64046 : 0"
       inkscape:vp_y="0 : 1000 : 0"
       inkscape:vp_z="73.444409 : 89.168876 : 1"
       inkscape:persp3d-origin="85.303316 : 37.714151 : 1"
       id="perspective4485" />
  </defs>
  <sodipodi:namedview
     id="base"
     pagecolor="#ffffff"
     bordercolor="#666666"
     borderopacity="1.0"
     inkscape:pageopacity="0.0"
     inkscape:pageshadow="2"
     inkscape:zoom="1"
     inkscape:cx="236.7804"
     inkscape:cy="239.8397"
     inkscape:document-units="mm"
     inkscape:current-layer="layer1"
     showgrid="false"
     units="px"
     inkscape:snap-smooth-nodes="true"
     inkscape:snap-global="false"
     inkscape:window-width="1920"
     inkscape:window-height="1025"
     inkscape:window-x="0"
     inkscape:window-y="27"
     inkscape:window-maximized="1" />
  <metadata
     id="metadata5">
    <rdf:RDF>
      <cc:Work
         rdf:about="">
        <dc:format>image/svg+xml</dc:format>
        <dc:type
           rdf:resource="http://purl.org/dc/dcmitype/StillImage" />
        <dc:title />
        <cc:license
           rdf:resource="" />
      </cc:Work>
    </rdf:RDF>
  </metadata>
  <g
     inkscape:label="Livello 1"
     inkscape:groupmode="layer"
     id="layer1"
     transform="translate(0,-161.53332)">
    <path
       style="opacity:1;fill:#130086;fill-opacity:1;fill-rule:nonzero;stroke:none;stroke-width:3.53953433;stroke-linecap:butt;stroke-linejoin:round;stroke-miterlimit:4;stroke-dasharray:none;stroke-opacity:1"
       d="M 8.1851292,240.95885 29.232603,227.87823 v 27.90188 L 8.1851292,268.86073 Z"
       id="rect4584"
       inkscape:connector-curvature="0"
       sodipodi:nodetypes="ccccc" />
    <path
       sodipodi:nodetypes="ccccc"
       inkscape:connector-curvature="0"
       id="path4588"
       d="m 126.28484,240.95884 -21.0476,-13.08062 v 27.90188 l 21.0476,13.08063 z"
       style="opacity:1;fill:#130086;fill-opacity:1;fill-rule:nonzero;stroke:none;stroke-width:3.53954577;stroke-linecap:butt;stroke-linejoin:round;stroke-miterlimit:4;stroke-dasharray:none;stroke-opacity:1" />
    <rect
       y="227.87822"
       x="29.232603"
       height="35.079132"
       width="76.004631"
       id="rect4590"
       style="opacity:1;fill:#6d67a6;fill-opacity:1;fill-rule:nonzero;stroke:none;stroke-width:3.18382668;stroke-linecap:butt;stroke-linejoin:round;stroke-miterlimit:4;stroke-dasharray:none;stroke-opacity:1" />
    <path
       style="opacity:1;fill:#a6a567;fill-opacity:1;fill-rule:nonzero;stroke:none;stroke-width:3.96875;stroke-linecap:butt;stroke-linejoin:round;stroke-miterlimit:4;stroke-dasharray:none;stroke-opacity:1"
       d="m 29.232603,235.27808 76.004637,-10e-6 21.0476,16.44537 H 8.1851292 Z"
       id="rect4594"
       inkscape:connector-curvature="0"
       sodipodi:nodetypes="ccccc" />
    <rect
       style="opacity:1;fill:#d2d13b;fill-opacity:1;fill-rule:nonzero;stroke:none;stroke-width:3.96875;stroke-linecap:butt;stroke-linejoin:round;stroke-miterlimit:4;stroke-dasharray:none;stroke-opacity:1"
       id="rect4598"
       width="0.82682288"
       height="0.41341144"
       x="222.62207"
       y="322.21808" />
    <g
       id="g4884"
       transform="translate(133.32441,23.277545)">
      <path
         transform="matrix(0.26458333,0,0,0.26458333,0,161.53332)"
         id="path4811"
         d="m -128.16602,58.882812 c -5.63137,-0.266671 -19.97703,1.263696 -44.64453,17.773438 -12.884,-3.220006 -26.59612,-4.810547 -40.32812,-4.810547 -15.109,0 -30.37624,1.92405 -44.61524,5.830078 -33.93999,-23.154028 -48.92187,-18.410156 -48.92187,-18.410156 -9.78,24.45702 -3.73349,42.565505 -1.89649,47.062495 -11.49499,12.406 -18.51367,28.24416 -18.51367,47.66016 0,14.65803 1.67009,27.80734 5.7461,39.23633 -19.511,-0.70998 -50.32304,-0.43673 -80.37305,5.57227 l 0.27539,1.38867 c 30.23099,-6.046 61.23691,-6.25551 80.62891,-5.52149 0.898,2.36599 1.89948,4.66093 3.02148,6.87891 -19.177,0.61803 -51.92174,3.06108 -83.30273,11.91406 l 0.38672,1.36133 c 31.629,-8.91802 64.65743,-11.30182 83.64843,-11.88281 11.458,21.35799 34.04833,35.15235 74.23633,39.48437 -0.03,0.0247 -0.0521,0.0457 -0.082,0.0703 h 60.86133 c 42.859,-4.25 63.42729,-18.0898 72.90429,-39.59179 18.773001,0.51598 52.557054,2.80393 84.873051,11.91992 l 0.382813,-1.36133 c -32.130997,-9.06297 -65.6913,-11.40698 -84.654294,-11.95898 0.898,-2.17202 1.68095,-4.43187 2.37695,-6.75586 19.249999,-0.80002 51.380157,-0.78904 82.660156,5.46093 l -0.04492,-0.0215 0.28125,-1.38867 c -31.161999,-6.23101 -63.142282,-6.29425 -82.488286,-5.49024 3.178,-11.45102 4.13477,-24.62732 4.13477,-39.32031 0,-21.07298 -7.91653,-37.93178 -20.76953,-50.75976 2.246,-7.250007 5.2459,-23.350901 -2.9961,-43.962894 0,0 -0.90998,-0.288063 -2.78711,-0.376954 z"
         style="fill:#000000;stroke-width:0.99999994"
         inkscape:connector-curvature="0" />
      <path
         style="fill:#f4cbb2;stroke-width:0.26458332"
         inkscape:connector-curvature="0"
         id="path4813"
         d="m -37.97572,202.01284 c 2.442369,2.21271 3.871119,4.88474 3.871119,7.76367 0,13.44189 -10.0203,13.80622 -22.379781,13.80622 -12.361598,0 -22.38084,-1.86134 -22.38084,-13.80622 0,-2.85988 1.408642,-5.51524 3.820848,-7.71896 4.023784,-3.67268 10.833629,-1.72799 18.559727,-1.72799 7.691438,-10e-4 14.478,-1.96559 18.507604,1.68196 z" />
      <path
         style="fill:#ffffff;stroke-width:0.26458332"
         inkscape:connector-curvature="0"
         id="path4815"
         d="m -63.928699,210.46045 c 0,3.70258 -2.084917,6.70349 -4.656666,6.70349 -2.57175,0 -4.656667,-3.00091 -4.656667,-6.70349 0,-3.70205 2.084917,-6.70189 4.656667,-6.70189 2.571749,0.003 4.656666,3.00037 4.656666,6.70189 z" />
      <path
         style="fill:#ffffff;stroke-width:0.26458332"
         inkscape:connector-curvature="0"
         id="path4817"
         d="m -38.970553,210.46045 c 0,3.70258 -2.084917,6.70349 -4.656667,6.70349 -2.57175,0 -4.656667,-3.00091 -4.656667,-6.70349 0,-3.70205 2.084917,-6.70189 4.656667,-6.70189 2.57175,0.003 4.656667,3.00037 4.656667,6.70189 z" />
      <path
         style="fill:#ad5c51;stroke-width:0.26458332"
         inkscape:connector-curvature="0"
         id="path4819"
         d="m -65.420949,210.54512 c 0,2.46803 -1.391708,4.46802 -3.104621,4.46802 -1.712912,0 -3.104356,-1.99999 -3.104356,-4.46802 0,-2.46883 1.390386,-4.46987 3.104356,-4.46987 1.711855,0 3.103563,2.00025 3.103563,4.46881 z" />
      <path
         style="fill:#ad5c51;stroke-width:0.26458332"
         inkscape:connector-curvature="0"
         id="path4821"
         d="m -40.438991,210.54512 c 0,2.46803 -1.391708,4.46802 -3.104621,4.46802 -1.712912,0 -3.104356,-1.99999 -3.104356,-4.46802 0,-2.46883 1.390386,-4.46987 3.104356,-4.46987 1.711855,0 3.103563,2.00025 3.103563,4.46881 z" />
      <path
         style="fill:#ad5c51;stroke-width:0.26458332"
         inkscape:connector-curvature="0"
         id="path4823"
         d="m -56.414532,216.41358 a 1.1644312,1.1644312 0 1 0 2.6e-5,0" />
      <path
         style="fill:#ad5c51;stroke-width:0.26458332"
         inkscape:connector-curvature="0"
         id="path4825"
         d="m -59.131803,219.35839 c -0.06879,-0.19526 0.03387,-0.40878 0.227806,-0.47757 0.194998,-0.0688 0.409046,0.0339 0.477573,0.22781 0.300038,0.84613 1.102519,1.41446 1.997869,1.41446 0.89535,0 1.697831,-0.56806 1.997869,-1.41446 0.06879,-0.19527 0.28231,-0.2966 0.477572,-0.22781 0.195263,0.0688 0.296598,0.28231 0.228071,0.47757 -0.404548,1.14406 -1.491985,1.91267 -2.703512,1.91267 -1.211527,0 -2.296584,-0.76464 -2.701396,-1.91029 z" />
    </g>
    <g
       id="g5047"
       transform="translate(85.68661,20.525625)">
      <path
         sodipodi:nodetypes="cccccccc"
         inkscape:connector-curvature="0"
         id="path5002"
         d="m -62.482348,202.92895 c 0,0 -0.06208,-4.06018 2.530143,-0.28061 0,0 1.279709,2.71663 6.090223,4.59094 0,0 8.204988,2.44519 5.57293,14.24357 h -3.639665 c -0.898434,-0.01 -2.494236,0.20058 -2.909457,0.29042 0.983746,-2.0566 3.38474,-8.56657 -3.333733,-12.47262 0,0 -3.997428,-2.18652 -4.310441,-6.3717 z"
         style="fill:#000000;stroke-width:0.26458672" />
      <path
         style="fill:#c3e4d8;stroke-width:0.26458675"
         inkscape:connector-curvature="0"
         id="path5004"
         d="m -61.482507,204.7396 c 0.310638,0 0.561465,-0.36406 0.561465,-0.81227 0,-0.44794 -0.250827,-0.81227 -0.561465,-0.81227 -0.310888,0 -0.562774,0.36433 -0.562774,0.81227 0,0.44821 0.251356,0.81227 0.563574,0.81227 z" />
      <path
         style="fill:#c3e4d8;stroke-width:0.26458675"
         inkscape:connector-curvature="0"
         id="path5006"
         d="m -60.233635,206.9621 c 0.310628,0 0.561455,-0.36406 0.561455,-0.81227 0,-0.44794 -0.250827,-0.81227 -0.561455,-0.81227 -0.310898,0 -0.562784,0.36433 -0.562784,0.81227 0,0.44821 0.251356,0.81227 0.563575,0.81227 z" />
      <path
         style="fill:#c3e4d8;stroke-width:0.26458675"
         inkscape:connector-curvature="0"
         id="path5008"
         d="m -58.609053,208.33609 c 0.310628,0 0.561465,-0.36407 0.561465,-0.81228 0,-0.44793 -0.250837,-0.81227 -0.561465,-0.81227 -0.310898,0 -0.562784,0.36434 -0.562784,0.81227 0,0.44821 0.251356,0.81228 0.563574,0.81228 z" />
      <path
         style="fill:#c3e4d8;stroke-width:0.26458675"
         inkscape:connector-curvature="0"
         id="path5010"
         d="m -56.735754,209.58492 c 0.310628,0 0.561464,-0.36407 0.561464,-0.81227 0,-0.44794 -0.250836,-0.81227 -0.561464,-0.81227 -0.310898,0 -0.562785,0.36433 -0.562785,0.81227 0,0.4482 0.251357,0.81227 0.563575,0.81227 z" />
      <path
         style="fill:#c3e4d8;stroke-width:0.26458675"
         inkscape:connector-curvature="0"
         id="path5012"
         d="m -54.986809,210.95758 c 0.310628,0 0.561454,-0.36407 0.561454,-0.81227 0,-0.44794 -0.250826,-0.81227 -0.561454,-0.81227 -0.310898,0 -0.562785,0.36433 -0.562785,0.81227 0,0.4482 0.251357,0.81227 0.563575,0.81227 z" />
      <path
         style="fill:#c3e4d8;stroke-width:0.26458675"
         inkscape:connector-curvature="0"
         id="path5014"
         d="m -53.489231,212.83347 c 0.310628,0 0.561455,-0.36406 0.561455,-0.81227 0,-0.44794 -0.250827,-0.81227 -0.561455,-0.81227 -0.310898,0 -0.562784,0.36433 -0.562784,0.81227 0,0.44821 0.251356,0.81227 0.563575,0.81227 z" />
      <path
         style="fill:#c3e4d8;stroke-width:0.26458675"
         inkscape:connector-curvature="0"
         id="path5016"
         d="m -52.489085,215.45549 c 0.310628,0 0.561465,-0.36406 0.561465,-0.81227 0,-0.44794 -0.250837,-0.81227 -0.561465,-0.81227 -0.310888,0 -0.562784,0.36433 -0.562784,0.81227 0,0.44821 0.251366,0.81227 0.563584,0.81227 z" />
      <path
         style="fill:#c3e4d8;stroke-width:0.26458675"
         inkscape:connector-curvature="0"
         id="path5018"
         d="m -52.489085,218.06693 c 0.310628,0 0.561465,-0.36407 0.561465,-0.81227 0,-0.44794 -0.250837,-0.81227 -0.561465,-0.81227 -0.310888,0 -0.562784,0.36433 -0.562784,0.81227 0,0.4482 0.251366,0.81227 0.563584,0.81227 z" />
      <path
         style="fill:#c3e4d8;stroke-width:0.26458675"
         inkscape:connector-curvature="0"
         id="path5020"
         d="m -52.923006,220.71541 c 0.310628,0 0.561455,-0.36407 0.561455,-0.81227 0,-0.44794 -0.250827,-0.81227 -0.561455,-0.81227 -0.310898,0 -0.562784,0.36433 -0.562784,0.81227 0,0.4482 0.251356,0.81227 0.563574,0.81227 z" />
    </g>
    <rect
       style="opacity:1;fill:#6d67a6;fill-opacity:1;fill-rule:nonzero;stroke:none;stroke-width:3.53953338;stroke-linecap:butt;stroke-linejoin:round;stroke-miterlimit:4;stroke-dasharray:none;stroke-opacity:1"
       id="rect4580"
       width="118.09972"
       height="27.901869"
       x="8.1851292"
       y="240.95886" />
    <g
       id="g5134"
       transform="matrix(0.03878372,0.18887962,-0.38977286,0.08003426,107.17343,210.80171)">
      <path
         sodipodi:nodetypes="ccsssc"
         inkscape:connector-curvature="0"
         id="path5128"
         transform="matrix(0.26458333,0,0,0.26458333,0,161.53332)"
         d="m -252.5,122 v 125 h 198.224863 c 34.5178,0 62.4999995,-27.9822 62.4999995,-62.5 0,-34.5178 -27.9821995,-62.5 -62.4999995,-62.5 z"
         style="opacity:1;fill:#c0c0c0;fill-opacity:1;fill-rule:nonzero;stroke:none;stroke-width:15;stroke-linecap:butt;stroke-linejoin:round;stroke-miterlimit:4;stroke-dasharray:none;stroke-opacity:1" />
      <path
         id="path5130"
         d="m -50.27083,210.34894 a 16.536459,16.536459 0 0 1 -16.536459,16.53646 16.536459,16.536459 0 0 1 -16.536459,-16.53646 16.536459,16.536459 0 0 1 16.536459,-16.53646 16.536459,16.536459 0 0 1 16.536459,16.53646 z"
         style="opacity:1;fill:#e4e4e4;fill-opacity:1;fill-rule:nonzero;stroke:none;stroke-width:3.96875;stroke-linecap:butt;stroke-linejoin:round;stroke-miterlimit:4;stroke-dasharray:none;stroke-opacity:1"
         inkscape:connector-curvature="0" />
      <path
         inkscape:connector-curvature="0"
         style="opacity:1;fill:#aaaaaa;fill-opacity:1;fill-rule:nonzero;stroke:none;stroke-width:2.06375027;stroke-linecap:butt;stroke-linejoin:round;stroke-miterlimit:4;stroke-dasharray:none;stroke-opacity:1"
         d="m -58.208329,210.34894 a 8.5989595,8.5989595 0 0 1 -8.59896,8.59896 8.5989595,8.5989595 0 0 1 -8.59896,-8.59896 8.5989595,8.5989595 0 0 1 8.59896,-8.59896 8.5989595,8.5989595 0 0 1 8.59896,8.59896 z"
         id="path5132" />
    </g>
  </g>
</svg>
