<?xml version="1.0" encoding="UTF-8" standalone="no"?>
<!-- Created with Inkscape (http://www.inkscape.org/) -->

<svg
   xmlns:dc="http://purl.org/dc/elements/1.1/"
   xmlns:cc="http://creativecommons.org/ns#"
   xmlns:rdf="http://www.w3.org/1999/02/22-rdf-syntax-ns#"
   xmlns:svg="http://www.w3.org/2000/svg"
   xmlns="http://www.w3.org/2000/svg"
   xmlns:sodipodi="http://sodipodi.sourceforge.net/DTD/sodipodi-0.dtd"
   xmlns:inkscape="http://www.inkscape.org/namespaces/inkscape"
   width="128"
   height="128"
   viewBox="0 0 33.866666 33.866668"
   version="1.1"
   id="svg8"
   inkscape:version="0.92.1 r15371"
   sodipodi:docname="cypher-gtk-plain.svg">
  <defs
     id="defs2" />
  <sodipodi:namedview
     id="base"
     pagecolor="#ffffff"
     bordercolor="#666666"
     borderopacity="1.0"
     inkscape:pageopacity="0.0"
     inkscape:pageshadow="2"
     inkscape:zoom="2.8"
     inkscape:cx="67.023871"
     inkscape:cy="50.76932"
     inkscape:document-units="mm"
     inkscape:current-layer="layer1"
     showgrid="false"
     units="px"
     inkscape:snap-global="true"
     inkscape:window-width="1552"
     inkscape:window-height="823"
     inkscape:window-x="154"
     inkscape:window-y="44"
     inkscape:window-maximized="0"
     inkscape:snap-bbox="true"
     inkscape:bbox-nodes="true"
     inkscape:snap-bbox-edge-midpoints="true"
     inkscape:bbox-paths="false"
     inkscape:object-paths="false" />
  <metadata
     id="metadata5">
    <rdf:RDF>
      <cc:Work
         rdf:about="">
        <dc:format>image/svg+xml</dc:format>
        <dc:type
           rdf:resource="http://purl.org/dc/dcmitype/StillImage" />
        <dc:title></dc:title>
      </cc:Work>
    </rdf:RDF>
  </metadata>
  <g
     inkscape:label="Livello 1"
     inkscape:groupmode="layer"
     id="layer1"
     transform="translate(0,-263.13332)">
    <g
       id="g4511"
       transform="matrix(2.0000004,0,0,2.0000004,8.2335833e-4,-297.0001)">
      <path
         inkscape:connector-curvature="0"
         style="fill:#fff800;fill-opacity:1;stroke:none;stroke-width:0.73425412"
         d="m 8.4666666,280.45646 c 0,0 -2.6870297,1.85538 -6.6082411,2.9371 v 4.40566 c 0,4.07512 2.8194901,7.88566 6.6082411,8.81082 3.7886274,-0.92516 6.6082414,-4.7357 6.6082414,-8.81082 v -4.40566 c -3.921083,-1.08172 -6.6082414,-2.9371 -6.6082414,-2.9371 z"
         id="path4730" />
      <path
         inkscape:connector-curvature="0"
         id="path4504"
         d="M 12.572603,282.55022 4.971,294.73294 c 0.9996805,0.89681 2.1898186,1.55808 3.4953945,1.87689 3.7886295,-0.92516 6.6083815,-4.73572 6.6083815,-8.81084 v -4.40541 c -0.907449,-0.25034 -1.744909,-0.54273 -2.502173,-0.84336 z"
         style="fill:#ffa000;fill-opacity:1;stroke:none;stroke-width:0.73425406" />
    </g>
    <g
       id="g3772"
       transform="matrix(2.0000004,0,0,2.0000004,8.2335833e-4,-297.0001)">
      <g
         id="g3768">
        <rect
           style="fill:#f0f0f0;fill-opacity:1;fill-rule:nonzero;stroke:none"
           id="rect6937"
           width="4.5941296"
           height="3.8286245"
           x="6.1696014"
           y="287.85382" />
        <rect
           style="fill:#a0a0a0;fill-opacity:1;fill-rule:nonzero;stroke:none"
           id="rect4515"
           width="2.447397"
           height="3.9665029"
           x="8.4666662"
           y="287.71594" />
      </g>
      <path
         id="path4624"
         d="m 8.4666666,284.82915 c -0.9736659,0 -1.7637168,0.79006 -1.7637168,1.76372 v 0.7059 H 6.3499999 c -0.3915841,0 -0.7053834,0.31379 -0.7053834,0.70538 v 3.52795 c 0,0.38806 0.3137993,0.70538 0.7053834,0.70538 h 4.2333331 c 0.388055,0 0.705384,-0.31732 0.705384,-0.70538 v -3.52795 c 0,-0.38806 -0.317329,-0.70538 -0.705384,-0.70538 h -0.35295 v -0.7059 c 0,-0.97366 -0.7900495,-1.76372 -1.7637164,-1.76372 z m 0,0.70538 c 0.585611,0 1.0583333,0.47273 1.0583333,1.05834 v 0.7059 H 7.4083332 v -0.7059 c 0,-0.58561 0.4727223,-1.05834 1.0583334,-1.05834 z m -2.1166667,2.46962 h 4.2333331 v 3.52795 H 6.3499999 Z m 2.1161499,0.45889 c -0.391583,0 -0.7053834,0.3138 -0.7053834,0.70538 0,0.25092 0.1320811,0.47119 0.3307292,0.59635 v 0.95963 h 0.7493082 v -0.96067 c 0.1978681,-0.12534 0.3312462,-0.34505 0.3312462,-0.59531 -6e-7,-0.38805 -0.3178443,-0.70538 -0.7059002,-0.70538 z"
         style="stroke-width:0.35277778"
         inkscape:connector-curvature="0" />
    </g>
    <path
       id="path4738"
       d="m 14.10448,276.47258 c -0.765398,0 -1.413934,-0.48494 -1.653488,-1.16854 H 4.218047 v -1.16856 h 8.232945 c 0.239554,-0.6836 0.88809,-1.16854 1.653488,-1.16854 0.96989,0 1.752827,0.78294 1.752827,1.75282 0,0.96988 -0.782937,1.75282 -1.752827,1.75282 z"
       inkscape:connector-curvature="0"
       style="fill:#646464;fill-opacity:1;stroke-width:0.58427197"
       sodipodi:nodetypes="sccccsss" />
    <path
       sodipodi:nodetypes="sccccsss"
       style="fill:#646464;fill-opacity:1;stroke-width:0.58427197"
       inkscape:connector-curvature="0"
       d="m 16.627381,286.92362 c 0,0.7654 -0.48494,1.41394 -1.16854,1.6535 v 7.06364 h -1.16856 v -7.06364 c -0.6836,-0.23956 -1.16854,-0.8881 -1.16854,-1.6535 0,-0.96988 0.78294,-1.75282 1.75282,-1.75282 0.96988,0 1.752822,0.78294 1.75282,1.75282 z"
       id="path7209" />
    <path
       id="path7211"
       d="m 22.07023,279.77052 c 0.7654,0 1.41394,0.48494 1.6535,1.16854 h 6.211719 v 1.16856 H 23.72373 c -0.23956,0.6836 -0.8881,1.16854 -1.6535,1.16854 -0.96988,0 -1.752821,-0.78294 -1.752821,-1.75282 0,-0.96988 0.782941,-1.75282 1.752821,-1.75282 z"
       inkscape:connector-curvature="0"
       style="fill:#646464;fill-opacity:1;stroke-width:0.58427197"
       sodipodi:nodetypes="sccccsss" />
    <path
       style="fill:#000000;fill-opacity:1;stroke:none;stroke-width:1.5393945"
       d="m 16.933287,263.13331 c 0,0 -5.633481,3.8899 -13.854463,6.15776 v 9.23665 c 0,8.54366 5.9111812,16.53262 13.854463,18.47226 7.943001,-1.93964 13.854442,-9.9286 13.854442,-18.47226 v -9.23665 c -8.220701,-2.26786 -13.854442,-6.15776 -13.854442,-6.15776 z m 0,1.72496 c 0,0 5.060261,3.49354 12.443682,5.53042 v 8.29613 c 0,7.67348 -5.309681,14.84812 -12.443682,16.5902 C 9.7990453,293.53294 4.4895843,286.3583 4.4895843,278.68482 v -8.29613 c 7.3836617,-2.03688 12.4437027,-5.53042 12.4437027,-5.53042 z"
       id="path4742"
       inkscape:connector-curvature="0" />
  </g>
</svg>
