<?xml version="1.0" encoding="UTF-8" standalone="no"?>
<!-- Created with Inkscape (http://www.inkscape.org/) -->

<svg
   xmlns:dc="http://purl.org/dc/elements/1.1/"
   xmlns:cc="http://creativecommons.org/ns#"
   xmlns:rdf="http://www.w3.org/1999/02/22-rdf-syntax-ns#"
   xmlns:svg="http://www.w3.org/2000/svg"
   xmlns="http://www.w3.org/2000/svg"
   xmlns:sodipodi="http://sodipodi.sourceforge.net/DTD/sodipodi-0.dtd"
   xmlns:inkscape="http://www.inkscape.org/namespaces/inkscape"
   width="72.428001"
   height="96.000061"
   viewBox="0 0 20.440791 27.093351"
   version="1.1"
   id="svg8"
   inkscape:version="0.48.5 r10040"
   sodipodi:docname="gnupg.svg">
  <defs
     id="defs2">
    <style
       type="text/css"
       id="style29">

    @font-face { font-family:&quot;CastleT&quot;;src:url(&quot;#FontID0&quot;) format(svg)}
    .fil1 {fill:white}
    .fil0 {fill:#0093DD}
    .fnt1 {font-weight:normal;font-size:40.3513;font-family:'CastleT'}
    .fnt0 {font-weight:normal;font-size:40.7083;font-family:'CastleT'}

  </style>
  </defs>
  <sodipodi:namedview
     id="base"
     pagecolor="#ffffff"
     bordercolor="#666666"
     borderopacity="1.0"
     inkscape:pageopacity="0.0"
     inkscape:pageshadow="2"
     inkscape:zoom="4"
     inkscape:cx="56.816457"
     inkscape:cy="34.69421"
     inkscape:document-units="mm"
     inkscape:current-layer="layer1"
     showgrid="false"
     inkscape:snap-grids="true"
     inkscape:window-width="1918"
     inkscape:window-height="1013"
     inkscape:window-x="0"
     inkscape:window-y="27"
     inkscape:window-maximized="0"
     inkscape:lockguides="false"
     showguides="true"
     inkscape:guide-bbox="true"
     inkscape:snap-to-guides="true"
     units="px"
     fit-margin-top="0"
     fit-margin-left="0"
     fit-margin-right="0"
     fit-margin-bottom="0"
     inkscape:snap-bbox="false"
     inkscape:object-nodes="true"
     inkscape:object-paths="true"
     inkscape:snap-global="false" />
  <metadata
     id="metadata5">
    <rdf:RDF>
      <cc:Work
         rdf:about="">
        <dc:format>image/svg+xml</dc:format>
        <dc:type
           rdf:resource="http://purl.org/dc/dcmitype/StillImage" />
        <dc:title />
      </cc:Work>
    </rdf:RDF>
  </metadata>
  <g
     inkscape:label="Layer 1"
     inkscape:groupmode="layer"
     id="layer1"
     transform="translate(-83.098238,-106.10333)">
    <flowRoot
       xml:space="preserve"
       id="flowRoot4564"
       style="font-size:24px;font-style:normal;font-variant:normal;font-weight:normal;font-stretch:normal;line-height:125%;letter-spacing:0px;word-spacing:0px;fill:#000000;fill-opacity:1;stroke:none;font-family:Bungee;-inkscape-font-specification:Bungee"><flowRegion
         id="flowRegion4566"><rect
           id="rect4568"
           width="218.57143"
           height="235"
           x="-63.57143"
           y="298.94824" /></flowRegion><flowPara
         id="flowPara4570" /></flowRoot>    <flowRoot
       xml:space="preserve"
       id="flowRoot4578"
       style="font-size:24px;font-style:normal;font-variant:normal;font-weight:normal;font-stretch:normal;line-height:125%;letter-spacing:0px;word-spacing:0px;fill:#000000;fill-opacity:1;stroke:none;font-family:Bungee;-inkscape-font-specification:Bungee"><flowRegion
         id="flowRegion4580"><rect
           id="rect4582"
           width="125"
           height="135.71428"
           x="55"
           y="344.66254" /></flowRegion><flowPara
         id="flowPara4584" /></flowRoot>    <g
       id="g3862">
      <path
         sodipodi:nodetypes="ccccccccc"
         inkscape:connector-curvature="0"
         id="rect3853"
         d="m 83.098238,126.10279 0,-6.92682 14.96092,0.004 4.043542,-0.0416 0,0.0389 1.43633,0.001 0,14.01849 -20.440792,0 z"
         style="fill:#ffffff;fill-opacity:1;fill-rule:nonzero;stroke:none" />
      <path
         sodipodi:nodetypes="ccc"
         inkscape:connector-curvature="0"
         id="rect3859"
         d="M 51.795573,8.31882 C 26.477898,5.9162641 24.214389,10.705306 9.811107,28.736529 7.1096766,10.986541 33.326427,-8.2098008 51.795573,8.31882 z"
         style="fill:#ffffff;fill-opacity:1;fill-rule:nonzero;stroke:none"
         transform="matrix(0.28222223,0,0,0.28222223,83.098238,106.10333)" />
      <path
         id="path3766"
         style="font-size:40.35129929px;font-weight:normal;fill:#0093dd;fill-opacity:1;fill-rule:evenodd;stroke-width:0.71938753;font-family:CastleT"
         d="m 83.098238,119.17597 1.44754,5.2e-4 6.3e-4,-4.315 c 6.4e-4,-4.83725 3.93325,-8.75931 8.78057,-8.75816 4.84745,7e-4 8.777442,3.92504 8.776292,8.7623 l -5.7e-4,4.27238 c -3.413842,2.49118 -9.645232,2.87536 -11.393122,3.00862 -3.80216,0.27169 -6.10748,1.94111 -7.61134,3.95616 z m 5.49105,6.2e-4 9.46987,0.003 6.4e-4,-4.31499 c 4.9e-4,-2.60927 -2.11917,-4.72565 -4.7338,-4.72627 -2.61458,-4.9e-4 -4.73547,2.11476 -4.73608,4.72405 z m 8.71431,-10.95356 c -1.12557,-0.67154 -2.44154,-1.05805 -3.84784,-1.05838 -3.85489,-7e-4 -7.03306,2.89666 -7.46619,6.62781 1.13091,-3.52793 4.44417,-6.08289 8.3542,-6.08197 1.03864,2.4e-4 2.03512,0.18127 2.95983,0.51254 z m 6.235432,24.97365 -17.482742,-0.004 c 1.92703,-1.06858 3.36296,-0.95938 5.74127,-0.88376 3.23874,0.10303 6.8178,-1.25016 8.578252,-3.04253 1.76066,-1.79255 -0.15918,-0.42426 -2.151872,0.0797 -1.99298,0.50366 -5.84914,0.55644 -8.42657,-0.12029 8.11828,0.11239 11.278422,-2.50754 13.073222,-4.85412 1.7947,-2.34653 -0.7759,-0.40764 -2.4411,0.40104 -1.665102,0.80941 -4.569002,1.38729 -7.761932,0.96463 4.83325,-0.009 8.512462,-2.41826 10.871472,-4.90512 z"
         inkscape:connector-curvature="0"
         sodipodi:nodetypes="ccsssccccccsssccscscccccccccccc" />
    </g>
  </g>
</svg>
