<?xml version="1.0" encoding="UTF-8" standalone="no"?>
<!-- Created with Inkscape (http://www.inkscape.org/) -->

<svg
   xmlns:dc="http://purl.org/dc/elements/1.1/"
   xmlns:cc="http://creativecommons.org/ns#"
   xmlns:rdf="http://www.w3.org/1999/02/22-rdf-syntax-ns#"
   xmlns:svg="http://www.w3.org/2000/svg"
   xmlns="http://www.w3.org/2000/svg"
   xmlns:sodipodi="http://sodipodi.sourceforge.net/DTD/sodipodi-0.dtd"
   xmlns:inkscape="http://www.inkscape.org/namespaces/inkscape"
   width="105.167"
   height="96"
   id="svg2"
   sodipodi:version="0.32"
   inkscape:version="0.92.1 r15371"
   version="1.0"
   sodipodi:docname="GNUTLS-logo.svg"
   inkscape:output_extension="org.inkscape.output.svg.inkscape">
  <defs
     id="defs4" />
  <sodipodi:namedview
     inkscape:document-units="in"
     pagecolor="#ffffff"
     bordercolor="#666666"
     borderopacity="1.0"
     inkscape:pageopacity="0.0"
     inkscape:pageshadow="2"
     inkscape:zoom="2.2262626"
     inkscape:cx="11.066146"
     inkscape:cy="28.374466"
     inkscape:current-layer="layer1"
     id="namedview6"
     inkscape:window-width="1920"
     inkscape:window-height="1025"
     inkscape:window-x="0"
     inkscape:window-y="27"
     showgrid="false"
     inkscape:window-maximized="1" />
  <metadata
     id="metadata8">
    <rdf:RDF>
      <cc:Work
         rdf:about="">
        <dc:format>image/svg+xml</dc:format>
        <dc:type
           rdf:resource="http://purl.org/dc/dcmitype/StillImage" />
        <dc:title></dc:title>
      </cc:Work>
    </rdf:RDF>
  </metadata>
  <g
     inkscape:label="Layer 1"
     inkscape:groupmode="layer"
     id="layer1"
     transform="translate(-62.944441,-245.32049)">
    <path
       style="fill:#000000;stroke-width:0.33611515"
       d="m 79.411909,341.03088 c -3.891575,-1.27672 -6.362495,-4.65505 -6.376632,-8.71832 -0.01432,-4.11585 2.568874,-7.49183 6.637538,-8.67463 5.644187,-1.64081 11.266809,2.7607 11.232011,8.79265 -0.01917,3.32286 -1.938608,6.42012 -4.936497,7.96569 -1.460306,0.75286 -5.117104,1.10681 -6.55642,0.63461 z m 22.689951,-0.4987 c -5.703814,-2.66783 -7.233864,-9.49418 -3.164275,-14.11747 4.257365,-4.83663 11.792015,-3.84717 14.863445,1.95187 1.0314,1.94734 1.01751,5.84431 -0.0279,7.82086 -2.35059,4.44437 -7.42202,6.33225 -11.6713,4.34474 z m 45.5436,0.11206 c -4.68627,-2.17481 -6.85004,-7.74637 -4.72706,-12.17189 2.64908,-5.5222 10.30845,-6.87586 14.484,-2.5598 5.59662,5.78495 1.96991,14.96153 -6.05967,15.33264 -1.66515,0.077 -2.54447,-0.066 -3.69727,-0.60095 z M 62.944441,319.47732 h 71.269389 l -0.18103,-31.60266 26.20169,0.17589 7.8765,21.51137 -0.13056,21.84748 -2.90126,0.0965 -2.90125,0.0965 -0.23491,-1.25219 c -0.60318,-3.21523 -3.07523,-6.42304 -6.15512,-7.9871 -2.80725,-1.4256 -6.62158,-1.33816 -9.75496,0.2236 -2.76363,1.37747 -5.71114,5.50288 -5.76322,8.06635 l -0.0188,0.92432 H 128.5268 116.80267 l -0.39818,-1.59655 c -1.77806,-7.12945 -9.21965,-10.65258 -15.6827,-7.42478 -2.709167,1.35303 -5.830874,6.92909 -5.843125,9.02133 -1.756528,-0.014 -1.011361,0.0221 -2.159426,0 -0.306735,-1.91821 -1.729689,-5.83855 -3.328609,-7.28307 -3.451358,-3.1181 -8.091468,-3.82069 -12.123536,-1.83571 -1.331718,0.65561 -2.715487,1.67698 -3.538065,2.61147 -1.313582,1.49231 -2.717824,5.17331 -2.717824,6.50731 h -8.066764 z m 94.960529,-27.56145 h -17.65404 v 17.47799 h 23.47053 z m -89.114475,-15.60186 4.218757,-0.53167 -0.0019,-4.11741 c -0.0024,-5.07884 0.707368,-8.11511 2.880534,-12.32275 5.877299,-11.37954 19.007208,-16.74263 31.001664,-12.66305 7.18682,2.4444 12.75752,7.62274 15.68648,14.58165 1.39843,3.32252 1.86714,5.92252 1.87255,10.38738 l 0.005,4.10064 3.86532,0.2016 0.17339,39.82965 H 68.994514 c -0.340869,-13.13956 0.5212,-26.33553 -0.204019,-39.46604 z m 32.415905,20.54478 0.86137,-0.70685 c 2.1038,-1.7264 2.32204,-5.01008 0.47295,-7.11608 -1.88881,-2.15123 -4.798236,-2.34127 -7.077759,-0.4623 -2.278058,1.87777 -2.387295,5.08784 -0.24927,7.32508 l 1.011844,1.0588 -3.720791,7.41905 12.432566,-0.0785 z m 17.17665,-24.18551 c -0.0584,-5.85655 -1.56713,-10.46179 -4.62081,-14.10454 -5.55547,-6.62714 -14.83125,-8.82297 -22.752183,-5.38604 -7.686716,3.3353 -11.90888,10.23541 -11.926254,19.49058 l -0.0058,3.10906 h 39.336087 z"
       id="path2222"
       sodipodi:nodetypes="cssssccsssccsssccccccccccsscccccsccssscccccccccccsssccccccccssccccccsscccc"
       inkscape:connector-curvature="0" />
  </g>
</svg>
