<?xml version="1.0" encoding="UTF-8" standalone="no"?>
<svg
   xmlns:dc="http://purl.org/dc/elements/1.1/"
   xmlns:cc="http://creativecommons.org/ns#"
   xmlns:rdf="http://www.w3.org/1999/02/22-rdf-syntax-ns#"
   xmlns:svg="http://www.w3.org/2000/svg"
   xmlns="http://www.w3.org/2000/svg"
   xmlns:xlink="http://www.w3.org/1999/xlink"
   xmlns:sodipodi="http://sodipodi.sourceforge.net/DTD/sodipodi-0.dtd"
   xmlns:inkscape="http://www.inkscape.org/namespaces/inkscape"
   width="12.9984in"
   height="12.9984in"
   viewBox="0 0 936 936"
   version="1.1"
   id="svg3"
   sodipodi:docname="Χάος.svg"
   inkscape:version="0.92.1 r15371"
   inkscape:export-filename="/home/viviana/Documenti/Programmazione/C++/CHAOS/img/Χάος_128.png"
   inkscape:export-xdpi="9.8500004"
   inkscape:export-ydpi="9.8500004">
  <metadata
     id="metadata9">
    <rdf:RDF>
      <cc:Work
         rdf:about="">
        <dc:format>image/svg+xml</dc:format>
        <dc:type
           rdf:resource="http://purl.org/dc/dcmitype/StillImage" />
      </cc:Work>
    </rdf:RDF>
  </metadata>
  <defs
     id="defs7">
    <radialGradient
       inkscape:collect="always"
       xlink:href="#linearGradient7343"
       id="radialGradient4583"
       gradientUnits="userSpaceOnUse"
       gradientTransform="matrix(0.48860738,0,0,0.50418258,32.074693,130.01758)"
       cx="77.313507"
       cy="297.60074"
       fx="77.313507"
       fy="297.60074"
       r="33.629742" />
    <linearGradient
       inkscape:collect="always"
       id="linearGradient7343">
      <stop
         style="stop-color:#ff6400;stop-opacity:1"
         offset="0"
         id="stop7339" />
      <stop
         style="stop-color:#ffff00;stop-opacity:0.972"
         offset="1"
         id="stop7341" />
    </linearGradient>
  </defs>
  <sodipodi:namedview
     pagecolor="#ffffff"
     bordercolor="#666666"
     borderopacity="1"
     objecttolerance="10"
     gridtolerance="10"
     guidetolerance="10"
     inkscape:pageopacity="0"
     inkscape:pageshadow="2"
     inkscape:window-width="1483"
     inkscape:window-height="878"
     id="namedview5"
     showgrid="false"
     inkscape:zoom="0.18912584"
     inkscape:cx="957.03472"
     inkscape:cy="729.67288"
     inkscape:window-x="0"
     inkscape:window-y="27"
     inkscape:window-maximized="0"
     inkscape:current-layer="svg3" />
  <g
     id="g4680"
     transform="matrix(26.750625,0,0,26.750625,-1407.7731,-7015.5038)">
    <g
       transform="translate(-9.0343417e-5)"
       id="g4597">
      <path
         d="m 68.87672,270.35615 c 0,0 -0.369,-0.63622 -0.369,-0.63622 -0.0625,-0.14669 -0.05577,-0.19647 -0.09207,-0.33681 -0.117137,-0.45545 -0.168406,-0.95094 0.061,-1.38468 0.188991,-0.35777 0.956182,-1.00109 1.270542,-1.32518 0.202088,-0.20809 0.452457,-0.36114 0.444223,-0.69572 -0.0074,-0.29526 -0.177764,-0.41504 -0.369376,-0.60028 -0.462559,-0.44684 -0.946078,-1.03253 -0.740618,-1.72001 0.0756,-0.25261 0.182626,-0.43562 0.441228,-0.52393 -3.76e-4,0.46518 -0.199844,0.84503 0.09917,1.27242 0.430377,0.61487 1.32593,0.75932 1.319568,1.68408 -0.0053,0.7612 -0.778792,1.21365 -1.216277,1.73197 -0.327087,0.38809 -0.181508,0.28929 -0.314737,0.66316 0.08944,0.0894 0.04004,0.15307 0,0.26197 0,0 0.264213,0.0748 0.264213,0.0748 -0.0078,0.0618 -0.01909,0.0843 0,0.1497 0.05015,0.14857 0.478654,0.51084 0.617872,0.67363 0.495119,0.57894 0.75933,1.22527 0.390329,1.94606 0.422519,-0.0482 0.66615,-0.58382 0.619743,-0.97304 -0.05539,-0.46479 -0.299392,-0.70993 -0.435988,-1.12271 -0.108157,-0.32672 -0.08271,-0.76121 0.02582,-1.0853 0.05389,-0.16093 0.114141,-0.21557 0.21257,-0.34281 0.493245,-0.63695 0.998096,-0.62611 1.304224,-1.34126 0.07447,-0.17403 0.120503,-0.33234 0.103666,-0.52394 -0.02994,-0.33869 -0.258228,-0.56661 -0.370501,-0.86075 0.446846,0.0909 0.710308,0.54264 0.741744,0.97302 0.02357,0.32409 -0.144456,0.79114 -0.353654,1.0359 0,0 -0.348794,0.29901 -0.348794,0.29901 0,0 -0.265334,0.27433 -0.265334,0.27433 -0.305383,0.31847 -0.458445,0.51045 -0.447215,0.97301 0.01047,0.42439 0.300885,0.75896 0.474159,1.12272 0.202464,0.42476 0.20134,0.5535 0.199094,1.01045 -5.63e-4,0.12725 5.63e-4,0.21332 -0.04154,0.33682 -0.0625,0.18225 -0.189739,0.32858 -0.295274,0.48651 0.261967,-0.0648 0.38659,-0.23016 0.527302,-0.44909 0.05427,-0.0842 0.188992,-0.25935 0.211446,-0.34019 0,0 0,-0.52056 0,-0.52056 0,0 -0.04566,-0.56137 -0.04566,-0.56137 0,0 -0.05688,-0.22454 -0.05688,-0.22454 0,0 0,-0.44908 0,-0.44908 0.01982,-0.52956 0.405301,-0.92401 0.9356,-0.9356 -0.118261,0.18449 -0.275068,0.14332 -0.44123,0.30762 -0.219306,0.21668 -0.24625,0.63396 -0.269829,0.92736 0.22155,0.073 0.249619,0.28779 0.348416,0.48652 0.184877,0.42962 0.208829,1.02804 0,1.45917 0,0 -0.31099,0.5243 -0.31099,0.5243 0.141837,-0.0415 0.214065,-0.0808 0.336816,-0.16317 0.293029,-0.1961 0.25972,-0.18375 0.393324,-0.47304 0.212198,-0.45919 0.113773,-0.5535 0.09468,-1.01045 0,0 0.01872,-0.44909 0.01872,-0.44909 -0.01197,-0.10142 -0.04788,-0.13659 -0.05614,-0.29938 -0.01984,-0.39146 0.184497,-0.76383 0.391829,-1.08194 0.298271,-0.45693 1.252203,-0.549 1.586029,-1.05122 0.288539,-0.43376 0.157928,-0.82072 -0.07073,-1.235 0.30987,0.14296 0.444969,0.45957 0.449083,0.78591 0.01388,1.20766 -1.147046,1.12009 -1.560203,2.13316 -0.333449,0.81697 0.157928,1.46926 0.175144,2.20801 0.0086,0.38061 -0.172152,0.71107 -0.407547,1.00259 -0.09581,0.11862 -0.148948,0.11862 -0.22829,0.26982 0.316984,-0.0183 0.52693,-0.24363 0.709563,-0.4865 0.310246,-0.41241 0.309122,-0.75671 0.341678,-1.23499 0,0 0.03405,-0.59878 0.03405,-0.59878 5.63e-4,-0.25749 0.03967,-0.63622 0.167284,-0.86076 0.284801,-0.50111 0.739501,-0.90342 1.329677,-0.96666 0.320721,-0.0344 0.831185,0.0149 1.122716,-0.0775 0.48015,-0.15231 0.598035,-0.55986 0.598783,-1.01418 10e-4,-0.61226 3.76e-4,-1.56694 0.82333,-1.64292 0.114891,-0.0104 0.190111,0.003 0.299393,0.0337 0,0 0,0.0748 0,0.0748 -0.136599,0.0362 -0.292655,0.0569 -0.41017,0.13848 -0.726023,0.50336 -0.121624,1.40266 -0.113769,2.06954 0.0024,0.21968 0,0.31025 -0.06437,0.52394 -0.04119,0.13697 -0.08795,0.25411 -0.173652,0.3705 -0.2208,0.29977 -0.714423,0.43262 -1.071823,0.43935 0,0 -0.33681,0 -0.33681,0 -0.337195,-0.008 -0.667274,0.13436 -0.890319,0.3881 -0.395197,0.44946 -0.184503,0.94832 -0.20471,1.49658 0,0 0.03518,1.19756 0.03518,1.19756 0,0 -0.02545,0.26196 -0.02545,0.26196 0,0 0.07485,-0.18711 0.07485,-0.18711 0,0 0.187121,-0.0374 0.187121,-0.0374 0,0 0.03743,0.11226 0.03743,0.11226 0.05202,-0.6186 0.317354,-1.37981 0.898178,-1.68743 0.294899,-0.15605 0.861496,-0.27132 1.19756,-0.2919 0,0 0.411668,0 0.411668,0 0.08645,-0.0179 0.218932,-0.0846 0.299389,-0.12613 0.374244,-0.19236 0.552756,-0.38472 0.586812,-0.8136 0,0 -0.07148,-0.56136 -0.07148,-0.56136 0.346174,0.31213 0.278812,1.05312 0,1.38133 -0.513452,0.5752 -1.740211,0.4764 -2.183686,0.98425 -0.169528,0.19348 -0.115269,0.43336 -0.131359,0.66576 -0.01197,0.17851 -0.115638,0.72977 -0.16766,0.89819 -0.09393,0.30388 -0.334192,0.6478 -0.577451,0.84989 -0.163169,0.13547 -0.272817,0.15531 -0.411662,0.31025 0.355528,0 0.608141,0.0322 0.894807,-0.23241 0.236897,-0.21855 0.323717,-0.53928 0.469668,-0.81547 0.287419,-0.54339 0.716294,-0.97115 1.367847,-0.90303 0.220054,0.0232 0.223798,0.0422 0.411292,0.15456 0,0 0,0.0835 0,0.0835 0,0 -0.561362,0 -0.561362,0 -0.346168,0.0752 -0.568842,0.37348 -0.732012,0.66502 -0.05351,0.0954 -0.191608,0.42064 -0.221919,0.52394 0,0 -0.06587,0.26197 -0.06587,0.26197 0,0 -0.160175,0.33681 -0.160175,0.33681 0,0 -0.08945,0.22455 -0.08945,0.22455 -0.08757,0.1568 -0.326336,0.37798 -0.499982,0.4401 -0.07073,0.013 -0.176264,0.009 -0.251491,0 0,0 0,0.0839 0,0.0839 0.34393,-0.0127 0.664276,0.0434 0.973029,-0.14933 0.591292,-0.36937 0.691587,-1.36935 1.34726,-1.76006 0.601404,-0.35814 1.544859,-0.10404 2.208012,-0.11152 0.319232,-0.004 0.666523,-0.15081 0.816219,-0.44946 0.159428,-0.3181 0.04676,-0.54152 0.08196,-0.78552 0.294899,0.24513 0.320347,0.7627 0.136225,1.08528 -0.07485,0.13061 -0.166536,0.2137 -0.285917,0.30239 -0.41616,0.30801 -0.715176,0.29565 -1.197575,0.2964 0,0 -0.449083,0.0344 -0.449083,0.0344 -0.348792,0.0277 -0.70095,0.0494 -0.96666,0.30911 -0.111147,0.1089 -0.333453,0.39109 -0.309122,0.55463 0.02097,0.14334 0.192359,0.24738 0.107404,0.56136 -0.120503,0.44422 -0.331202,0.40568 -0.627973,0.97303 0.462189,0.0602 0.650425,-0.58119 0.87684,-0.89819 0.100296,-0.14108 0.319231,-0.42363 0.446848,-0.53254 0.269823,-0.23015 0.832303,-0.36862 1.183721,-0.34654 0.629095,0.04 0.722278,0.0637 1.27241,0.40829 0.251868,0.15793 0.650429,0.50299 0.9356,0.5303 0.233901,0.0221 0.514583,-0.13922 0.650057,-0.32222 0.09917,-0.13435 0.09468,-0.20359 0.251863,-0.37274 0.277311,-0.29827 0.680739,-0.43262 1.081553,-0.44834 0.35403,-0.0138 0.4779,0.0569 0.733136,0.27918 0.07484,0.0651 0.141461,0.0853 0.199091,0.17364 0.176271,0.26984 0.07821,0.75672 -0.146326,0.9678 -0.01461,-0.17478 0.02923,-0.24625 0.03592,-0.41167 0.0039,-0.10254 0.0024,-0.23877 -0.04755,-0.33045 -0.151566,-0.27732 -0.769812,-0.45882 -1.111116,-0.25973 -0.645193,0.37575 -0.410543,1.2335 -1.12272,1.56433 -0.381352,0.17252 -0.696461,0.1265 -1.085293,0 -0.114898,-0.0333 -0.319976,-0.15606 -0.411667,-0.14558 -0.101791,0.0113 -0.35253,0.2092 -0.449091,0.27544 -0.302007,0.20771 -0.703191,0.50148 -1.047871,0.61748 0,0 0,0.0749 0,0.0749 0.659787,0.0898 1.209172,-0.60776 1.758934,-0.62723 0.250362,-0.009 0.256723,0.23091 0.165784,0.40269 -0.109647,0.20695 -0.55088,0.48014 -0.764574,0.59877 0.06437,0.0637 0.150449,0.15345 0.224547,0.20284 0.144085,0.0954 0.758958,0.3327 0.935598,0.34394 0.134347,0.009 0.212568,-0.0419 0.298643,-0.0426 0.08832,-4e-4 0.191235,0.0535 0.144081,0.15605 -0.06998,0.15232 -0.40643,0.19685 -0.555001,0.20022 -0.23689,0.006 -0.33532,-0.0183 -0.561359,-0.0801 -0.100297,-0.0273 -0.235391,-0.0842 -0.336819,-0.0632 -0.08532,0.0179 -0.251857,0.13174 -0.33681,0.17963 -0.211073,0.11976 -0.51682,0.2848 -0.748474,0.34206 0,0 -0.935602,0.0996 -0.935602,0.0996 0,0 -0.673633,0.2193 -0.673633,0.2193 0,0 -0.336814,0.16916 -0.336814,0.16916 0,0 -0.486512,0.067 -0.486512,0.067 -0.176643,-0.006 -0.182257,-0.0599 -0.374241,0 0.305005,0.0512 0.347668,0.29603 0.860753,0.30201 0.756709,0.009 1.273534,-0.47229 1.833772,-0.48613 0.483145,-0.0116 1.102512,0.24961 1.047871,0.82295 -0.147451,-0.12949 -0.133227,-0.17365 -0.239138,-0.2818 -0.196851,-0.20247 -0.359644,-0.20621 -0.621611,-0.20471 -0.582318,0.004 -1.189333,0.66652 -1.871196,0.91763 -0.07035,0.0259 -0.190866,0.0737 -0.261972,0.0816 -0.189363,0.0214 -0.561361,-0.15045 -0.748479,-0.21332 0.08757,0.15007 0.186372,0.28406 0.336817,0.37836 0.215565,0.13472 0.656792,0.15343 0.898174,0.0861 0.735382,-0.20622 1.438206,-0.67664 2.24544,-0.40755 0.873474,0.29115 1.371965,1.21664 2.095743,1.40563 0.606269,0.15793 0.793762,-0.37349 1.010445,-0.60176 0.05464,0.57407 -0.540776,0.90116 -1.047871,0.87945 -0.775049,-0.0333 -1.103257,-0.5202 -1.721503,-0.83342 -0.09506,-0.0479 -0.198344,-0.0756 -0.299393,-0.10854 -0.144078,-0.0471 -0.218554,-0.0786 -0.374238,-0.0857 -0.724152,-0.0341 -1.236862,0.51871 -1.871195,0.72754 -0.277692,0.0917 -0.686733,0.13472 -0.973028,0.0689 0,0 -0.449083,-0.16167 -0.449083,-0.16167 0.09244,0.28892 0.50597,0.45769 0.785899,0.50036 0.197228,0.0303 0.638454,-0.0599 0.823329,-0.1396 0,0 0.336817,-0.16878 0.336817,-0.16878 0.123123,-0.0453 0.679994,-0.1366 0.823327,-0.14745 0.113769,-0.009 0.189364,0.0113 0.299394,0.0248 0.65529,0.0794 1.066952,0.31174 1.437078,0.86637 0.127614,0.19085 0.275066,0.56211 0.380601,0.78591 0.150818,0.31847 0.260848,0.78178 0.577454,0.97264 0.468175,0.28218 1.059846,-0.31436 1.571807,-0.33494 0.394824,-0.0161 0.822951,0.21556 0.96778,0.59729 0.107035,0.28218 0.02394,0.83006 -0.294151,0.93559 0,0 0.101043,-0.41166 0.101043,-0.41166 0.04675,-0.32896 -0.110399,-0.62124 -0.43786,-0.71854 -0.34505,-0.10254 -0.732383,0.21818 -1.010445,0.38659 -0.41054,0.2485 -0.951319,0.39108 -1.422112,0.22118 -0.488011,-0.1759 -0.687105,-0.55126 -0.848025,-1.01195 0,0 -0.126497,-0.37423 -0.126497,-0.37423 -0.161671,-0.34507 -0.578197,-0.73989 -0.971521,-0.77918 -0.444601,-0.0445 -0.965546,0.38996 -1.347268,0.59579 -0.20658,0.11152 -0.552748,0.25411 -0.785901,0.25823 -0.536285,0.009 -0.96928,-0.08 -1.384687,-0.44909 0.131358,0.44647 0.563977,0.73089 1.010447,0.79976 0,0 0.411662,0 0.411662,0 0,0 0.823328,-0.082 0.823328,-0.082 0.328584,0.0235 0.724157,0.15569 0.973022,0.37424 0.659039,0.57896 0.660534,1.86707 1.609231,1.82553 0.270581,-0.012 0.367879,-0.12685 0.598787,-0.22302 -0.06175,0.28703 -0.324469,0.39817 -0.598787,0.41015 -0.135843,0.006 -0.43898,-0.0255 -0.561357,-0.0759 -0.648559,-0.26721 -0.649682,-1.12534 -1.384691,-1.51342 -0.198346,-0.10441 -0.638822,-0.21182 -0.86075,-0.1976 0,0 -0.261966,0.0498 -0.261966,0.0498 0,0 -0.299394,0.0419 -0.299394,0.0419 -0.346916,0.0707 -0.605518,0.17701 -0.973023,0.1074 -0.464054,-0.0876 -0.651924,-0.3645 -0.935599,-0.69346 3.76e-4,0.15269 -0.002,0.26234 0.04564,0.41166 0.307246,0.95994 1.566568,0.75411 2.274627,1.1957 0.367878,0.22978 0.679243,0.91502 0.374242,1.27428 -0.06998,-0.24661 -0.01049,-0.38808 -0.153439,-0.63621 -0.350666,-0.60738 -0.893688,-0.5172 -1.493223,-0.52393 0,0 -0.374234,-0.0232 -0.374234,-0.0232 -0.156056,-0.009 -0.37911,-0.0217 -0.523935,-0.0763 -0.353282,-0.13323 -0.48464,-0.45544 -0.711056,-0.72377 0.0097,0.16466 0.0408,0.22716 0.116761,0.37386 0.09318,0.18 0.30912,0.45021 0.482017,0.55351 0.311742,0.18598 0.921001,0.17588 1.309845,0.31135 0.275438,0.0958 0.700195,0.44909 0.875723,0.68038 0.479025,0.63096 0.288537,1.73984 0.856633,2.26227 0.0842,0.0771 0.17776,0.11638 0.288539,0.14034 0.407547,0.0887 0.51795,-0.17402 0.823329,-0.31736 -0.08832,0.6306 -0.901174,0.68411 -1.346892,0.40681 -0.294527,-0.18338 -0.457692,-0.5812 -0.572213,-0.89332 0,0 -0.142587,-0.33682 -0.142587,-0.33682 -0.153811,-0.39407 -0.233895,-0.64892 -0.564348,-0.94981 -0.534042,-0.48652 -1.095028,-0.22754 -1.640294,-0.37088 -0.338688,-0.0891 -0.776549,-0.35103 -0.984251,-0.63171 0,0 -0.288165,-0.51757 -0.288165,-0.51757 -0.205087,0.54638 0.05764,0.87908 0.483145,1.19756 0.23577,0.17589 0.440853,0.19948 0.714421,0.30688 0.466302,0.18338 0.919881,0.38883 1.255201,0.77991 0.598781,0.69871 0.467799,1.39406 0.220428,2.20652 -0.08421,0.27655 -0.273196,0.65042 -0.223422,0.9356 0.05053,0.28779 0.143704,0.44871 0.394448,0.6059 0.444971,0.27843 0.879088,0.1059 1.308343,0.52019 0.400437,0.38658 0.577823,1.36223 -0.03743,1.63992 -0.111894,0.0505 -0.251861,0.0408 -0.37274,0.0408 0.09355,-0.1512 0.17103,-0.13324 0.296023,-0.23915 0.202464,-0.17177 0.234271,-0.33307 0.227165,-0.58418 -0.01687,-0.61338 -0.51084,-0.6336 -0.972277,-0.68 -0.482019,-0.0482 -1.156771,-0.24326 -1.434835,-0.66877 -0.232777,-0.35665 -0.32409,-0.81622 -0.214815,-1.23349 0.09095,-0.3473 0.286295,-0.68111 0.300889,-1.04787 0.02995,-0.74773 -0.781038,-1.13844 -1.420611,-1.22714 -0.21444,-0.03 -0.334945,0.0251 -0.711055,-0.064 -0.100297,-0.0239 -0.437489,-0.13885 -0.523938,-0.18302 -0.448716,-0.22977 -0.470417,-0.61375 -0.598779,-1.03327 -0.03816,0.15044 -0.04941,0.2223 -0.04006,0.37761 0.01311,0.22304 0.05577,0.4184 0.202463,0.59466 0.193855,0.23353 0.302762,0.21183 0.500731,0.33383 0.309496,0.19049 0.994731,0.63471 1.160146,0.93972 0.06288,0.11601 0.08832,0.28068 0.09468,0.41128 0,0 -0.02056,0.97303 -0.02056,0.97303 -0.03557,0.24886 -0.09768,0.32071 -0.110406,0.63621 -0.02248,0.54639 0.317733,1.03589 0.907534,0.9356 -0.139594,0.2541 -0.492872,0.21294 -0.711053,0.0804 -0.115268,-0.07 -0.265336,-0.22641 -0.334199,-0.34242 -0.07634,-0.12837 -0.129111,-0.30239 -0.155311,-0.44909 -0.138094,-0.78104 0.306133,-1.10963 -0.146697,-1.79635 -0.485387,-0.73539 -1.254457,-0.67325 -1.859227,-1.22564 -0.258221,-0.23576 -0.361884,-0.58643 -0.461063,-0.90753 -0.05053,0.13137 -0.104787,0.26871 -0.105537,0.41166 -0.0016,0.29641 0.151944,0.71069 0.347671,0.93186 0,0 0.227914,0.20472 0.227914,0.20472 0.183377,0.17701 0.587554,0.65304 0.66727,0.88432 0.163916,0.47528 0.07747,1.19944 -0.501109,1.30984 0.137723,-0.34693 0.400812,-0.36526 0.330081,-0.93559 -0.07185,-0.57446 -0.721537,-0.8151 -1.119354,-1.17212 -0.266833,-0.23989 -0.480525,-0.4955 -0.577078,-0.84878 0,0 -0.09318,-0.37425 -0.09318,-0.37425 -0.110775,0.21707 -0.247,0.24064 -0.257853,0.52394 -0.0176,0.44947 0.453955,0.94496 0.714052,1.27242 0.320348,0.40268 0.480901,0.76271 0.543398,1.27241 0.09954,0.81023 -0.576336,1.45504 -0.621991,2.24545 -0.02095,0.36637 0.222674,0.90903 0.55799,1.0793 0.152316,0.0775 0.324468,0.0408 0.486511,0.0808 -0.133229,0.2616 -0.392954,0.26347 -0.636207,0.14784 -0.313985,-0.14933 -0.544516,-0.54116 -0.657161,-0.85889 -0.202092,-0.5696 -0.0026,-1.17137 0.166158,-1.72151 0.09843,-0.32072 0.218561,-0.67326 0.136227,-1.01044 -0.236896,-0.9704 -1.047498,-1.08567 -1.498456,-1.83378 -0.233902,-0.38771 -0.201343,-0.66913 -0.167661,-1.08529 -0.429251,0.17215 -0.411665,0.60402 -0.280303,0.97302 0.236141,0.66354 0.494743,0.76308 0.767938,1.30985 0.136972,0.27394 0.186744,0.5576 0.208826,0.86073 0,0 -0.01945,0.26198 -0.01945,0.26198 -0.03256,0.45507 -0.17664,0.91015 -0.466676,1.27242 0,0 -0.771685,0.74847 -0.771685,0.74847 -0.228283,0.22605 -0.629842,0.51871 -0.713674,0.82334 -0.106658,0.38732 0.134726,0.76568 0.37686,1.04786 0.324091,0.37761 0.610385,0.66914 0.59841,1.19757 -0.0086,0.35927 -0.312117,0.97415 -0.748104,0.7859 0.174768,-0.24438 0.375361,-0.37836 0.38846,-0.71106 0.01571,-0.40005 -0.483517,-0.73875 -0.761206,-0.96328 -0.295275,-0.23914 -0.625727,-0.81547 -0.593168,-1.20729 0.03742,-0.45321 0.272071,-0.93149 0.565474,-1.27243 0,0 0.397069,-0.3776 0.397069,-0.3776 0.233153,-0.23615 0.459194,-0.70882 0.462935,-1.04451 0.0029,-0.27694 -0.04004,-0.58494 -0.211821,-0.81136 -0.254855,-0.33531 -0.738,-0.51943 -0.976763,-0.80123 -0.145579,-0.17141 -0.35665,-0.59093 -0.35291,-0.81847 0.0018,-0.14258 0.05577,-0.17851 0.05651,-0.30238 0,0 0,-0.2979 0,-0.2979 0.0034,-0.0977 0.118258,-0.30464 0.164664,-0.41166 -0.312862,0.15606 -0.569966,0.49549 -0.551628,0.86074 0.0072,0.14259 0.0041,0.31287 0.04154,0.4491 0,0 0.312118,0.78591 0.312118,0.78591 0.152689,0.57108 0.105161,1.02166 -0.18899,1.53437 -0.372743,0.65043 -1.2552,0.99286 -1.220773,1.75893 0.01683,0.37835 0.250742,0.42438 0.33532,0.71105 -0.387337,-0.10515 -0.556869,-0.44496 -0.561359,-0.82332 -0.0078,-0.69946 0.416153,-0.97152 0.791141,-1.49696 0.124995,-0.17515 0.292281,-0.42027 0.323719,-0.63621 0.101793,-0.7002 -0.569592,-1.44268 -0.686728,-2.17059 -0.09468,-0.58905 0.195352,-0.7365 0.320346,-1.12272 -0.351786,0.13921 -0.716294,0.60852 -0.803493,0.97302 -0.061,0.25449 -0.05763,0.70396 -0.05725,0.97302 5.63e-4,0.47304 0.168783,0.98575 -0.374238,1.27541 -0.100297,0.0535 -0.152692,0.0603 -0.261969,0.0718 0.142961,-0.27843 0.435616,-0.35142 0.408295,-0.82333 -0.02507,-0.4285 -0.304256,-0.74884 -0.351784,-1.49696 -0.0056,-0.0905 0.01646,-0.32446 0.03892,-0.41166 0.07298,-0.27993 0.276189,-0.51233 0.428505,-0.74847 0,0 -0.561362,0.11226 -0.561362,0.11226 -0.05763,0.30763 -0.20396,0.41617 -0.220801,0.78591 0,0 0.02695,0.37425 0.02695,0.37425 0.0348,0.6115 0.116763,1.29149 -0.24363,1.83377 -0.229033,0.34466 -0.632465,0.5505 -0.984625,0.74848 -0.21893,0.12274 -0.379478,0.12087 -0.523937,0.33681 -0.176266,-0.052 -0.28105,0.0367 -0.410165,0.15642 -0.241384,0.22418 -0.35141,0.56773 -0.292653,0.89145 0,0 0.104035,0.37424 0.104035,0.37424 -0.268328,-0.0883 -0.340182,-0.49624 -0.361884,-0.74848 -0.03331,-0.38397 0.162414,-0.74549 0.438231,-0.99473 0,0 1.031779,-0.77542 1.031779,-0.77542 0.06661,-0.0722 0.119008,-0.16879 0.17477,-0.25074 0.100671,-0.14709 0.140715,-0.19311 0.172525,-0.37424 0,0 0.061,-0.4083 0.061,-0.4083 0,0 -0.199094,-1.31321 -0.199094,-1.31321 -0.01571,-0.26085 -0.02097,-0.58794 0.217057,-0.74847 0,0 0,-0.0749 0,-0.0749 0,0 -0.261967,-0.11226 -0.261967,-0.11226 0,0 -0.03743,0.11226 -0.03743,0.11226 -0.211073,0.0621 -0.310994,0.32409 -0.345798,0.52395 0,0 -0.05688,1.38469 -0.05688,1.38469 -0.07073,0.39143 -0.243258,0.7683 -0.533291,1.04598 0,0 -0.448713,0.33868 -0.448713,0.33868 0,0 -0.973027,0.10928 -0.973027,0.10928 0,0 -0.336814,0 -0.336814,0 -0.389584,-0.0405 -0.774301,-0.14557 -0.989114,0.3024 -0.111526,0.23277 -0.05913,0.53666 -0.05876,0.7859 6.57e-4,0.47678 0.02133,1.01494 -0.276188,1.42174 -0.227909,0.31174 -0.639199,0.5666 -1.033649,0.4779 -0.234648,-0.0528 -0.370873,-0.11339 -0.411663,-0.36525 0.153064,0.0401 0.287789,0.14221 0.449087,0.13996 0.459566,-0.007 0.845034,-0.47828 0.819958,-0.92587 -0.03593,-0.6392 -0.351412,-1.00072 -0.264214,-1.72151 0.03892,-0.32409 0.121255,-0.51982 0.379856,-0.73613 0.252235,-0.21143 0.569218,-0.31361 0.898175,-0.29264 0.492124,0.0315 1.055356,0.11114 1.402651,-0.31886 0.05688,-0.0703 0.154184,-0.21743 0.183376,-0.29901 0.174396,-0.36751 0.0277,-0.71368 0,-1.08529 -0.05913,-0.53367 -0.129863,-1.23949 0.155686,-1.71516 0.102913,-0.1714 0.279929,-0.32521 0.428878,-0.45545 -0.250742,0.0887 -0.604024,0.1396 -0.730891,0.41317 -0.03331,0.0718 -0.04528,0.24887 -0.05501,0.33532 0,0 -0.07485,-0.0749 -0.07485,-0.0749 -0.181132,0.19011 -0.150071,0.366 -0.21631,0.59879 -0.0973,0.34205 -0.306504,0.87946 -0.571091,1.11486 -0.08907,0.0794 -0.194603,0.13659 -0.297893,0.19497 -0.610011,0.3443 -1.056854,0.18899 -1.684078,0.31324 -0.334571,0.0662 -0.637333,0.34843 -0.666523,0.69721 -0.02507,0.2949 0.115642,0.42963 0.217432,0.67362 -0.309869,-0.10665 -0.40792,-0.36749 -0.411661,-0.67362 -0.0011,-0.12349 -0.0053,-0.25485 0.02957,-0.37424 0.09955,-0.34468 0.502979,-0.59018 0.831187,-0.67812 0.599532,-0.16018 1.075939,-0.14932 1.526524,-0.66914 0.421393,-0.48614 0.373491,-1.01719 0.446466,-1.60923 0.01272,-0.10404 0.01048,-0.19723 0.04004,-0.2994 0.120878,-0.4184 0.415407,-0.53478 0.644069,-0.78591 -0.241385,0.0381 -0.300515,0.094 -0.489881,0.24065 -0.132855,0.10329 -0.325963,0.26383 -0.423264,0.39893 0,0 -0.167284,0.29602 -0.167284,0.29602 -0.151196,0.26386 -0.358524,0.57671 -0.60365,0.75747 -0.29378,0.21631 -0.819211,0.38397 -1.122722,0.10329 0.403058,-0.12312 0.577453,-0.0689 0.915766,-0.43974 0.233901,-0.25673 0.442353,-1.1242 0.669141,-1.5063 0.10067,-0.16953 0.353656,-0.43861 0.526554,-0.53741 0,0 0.283675,-0.13623 0.283675,-0.13623 -0.119007,-0.0288 -0.450584,-0.0726 -0.561359,-0.0381 -0.218556,0.0674 -0.514954,0.41167 -0.642194,0.59953 -0.303884,0.44834 -0.446096,0.86186 -0.929611,1.18409 -0.516453,0.34429 -1.281397,0.31885 -1.8712,0.21519 0,0 -0.464806,-0.0928 -0.464806,-0.0928 -0.345423,-0.0266 -0.769437,0.0243 -1.002588,0.3095 -0.13061,0.16017 -0.215189,0.38584 -0.216312,0.59204 4.23e-4,0.17477 0.06287,0.28442 0,0.44908 -0.110399,-0.23988 -0.147073,-0.28966 -0.150069,-0.56135 -0.0016,-0.14259 -4.22e-4,-0.2747 0.04677,-0.41166 0.175141,-0.50935 0.658287,-0.71218 1.150787,-0.75148 0,0 0.449087,-0.0344 0.449087,-0.0344 0.60552,-5.6e-4 1.170621,0.0946 1.643285,-0.37759 0.297898,-0.2979 0.497741,-0.83118 0.688977,-1.19421 0,0 0.284795,-0.44871 0.284795,-0.44871 0.195355,-0.28854 0.426259,-0.55275 0.788526,-0.59916 0,0 0,-0.0749 0,-0.0749 -0.331952,-0.006 -0.570717,0.0551 -0.815098,0.30724 -0.09618,0.0992 -0.105161,0.17216 -0.180009,0.26647 0,0 -0.480896,0.58643 -0.480896,0.58643 -0.254857,0.29864 -0.592047,0.51646 -0.956558,0.65642 -0.717044,0.27582 -1.364478,0.20471 -2.020893,-0.18674 -0.465929,-0.27807 -0.840544,-0.74699 -1.422113,-0.69048 -0.452829,0.0442 -0.536658,0.42476 -0.746607,0.74474 -0.268329,0.40867 -0.618243,0.70806 -1.12459,0.74511 -0.433369,0.0317 -0.830438,-0.0617 -1.081178,-0.44572 -0.116389,-0.17814 -0.135849,-0.28443 -0.07897,-0.48652 0.230907,0.10817 0.123125,0.15607 0.249992,0.33793 0.102915,0.14784 0.217433,0.21893 0.386216,0.27097 0.411664,0.12722 0.843162,-0.0921 1.051613,-0.45957 0.113395,-0.20022 0.112272,-0.33832 0.181507,-0.52357 0.181505,-0.48614 0.438607,-0.86374 0.974894,-0.98499 0.88807,-0.2006 1.618212,0.69197 2.432558,0.75371 0.392204,0.0296 0.876094,-0.26196 1.072196,-0.59205 0,0 0.284797,-0.71105 0.284797,-0.71105 0.246249,-0.51009 0.563603,-0.84653 1.112987,-1.01756 0.108531,-0.0336 0.182632,-0.0637 0.299393,-0.0648 0.127989,-8.4e-4 0.252612,0.0367 0.374241,0.0718 -0.170282,-0.14669 -0.229784,-0.17625 -0.449088,-0.22416 -0.41129,-0.0891 -0.752595,-0.0763 -1.122719,0.1482 -0.383596,0.23315 -0.699455,0.7163 -1.347263,0.81922 -0.63733,0.10104 -0.941962,-0.16953 -1.459535,-0.46556 0,0 -0.557991,-0.27956 -0.557991,-0.27956 -0.147826,-0.0883 -0.10329,-0.10142 -0.302761,-0.18526 -0.139592,0.21108 -0.323343,0.0674 -0.67363,0.2979 -0.264589,0.1744 -0.291908,0.43301 -0.523936,0.56286 0.04041,-0.21406 0.07485,-0.38023 0.207703,-0.56136 0.330827,-0.45021 0.657539,-0.48876 1.176984,-0.48651 0.157929,3.8e-4 0.218929,0.003 0.374239,0.0434 0,0 0.67363,0.26346 0.67363,0.26346 0.276564,0.11152 0.671761,0.30388 0.973025,0.23464 0.409044,-0.094 0.655668,-0.57595 0.951317,-0.86187 0.162421,-0.15682 0.239887,-0.18862 0.433369,-0.28816 0.602901,-0.30987 1.058351,-0.30201 1.646656,0.0471 -0.0074,-0.35591 -0.635086,-0.57483 -0.935599,-0.59505 -0.197227,-0.0135 -0.305381,0.0356 -0.486514,0.0876 0,0 -0.374238,0.11264 -0.374238,0.11264 0,0 -0.898175,0.40942 -0.898175,0.40942 -0.110029,0.0285 -0.224544,0.0228 -0.336816,0.0228 -0.38322,-3.8e-4 -0.615249,-0.0779 -0.785903,-0.4491 0.301264,0.0808 0.431498,0.28181 0.785903,0.19013 0.432621,-0.11228 0.615251,-0.44348 0.935599,-0.69984 0.50672,-0.40529 1.275783,-0.55124 1.871197,-0.27618 -0.321094,-0.4839 -0.940463,-0.54042 -1.459532,-0.38473 0,0 -0.9356,0.3503 -0.9356,0.3503 -0.178513,0.0467 -0.412038,0.0367 -0.598784,0.0344 -0.496243,-0.006 -0.982381,-0.2863 -1.347263,-0.60553 0,0 -0.714424,-0.64744 -0.714424,-0.64744 -0.203959,-0.14145 -0.607016,-0.25373 -0.857383,-0.2425 -0.267954,0.012 -0.525059,0.16091 -0.637329,0.41016 0,0 -0.11115,0.33682 -0.11115,0.33682 -0.255981,-0.39595 0.273194,-0.91951 0.636207,-1.02392 0.111898,-0.0322 0.291159,-0.0243 0.411664,-0.0239 0.57034,4.1e-4 0.511211,0.18114 0.9356,0.19274 0,0 0.336815,0 0.336815,0 0.419524,0.0658 0.944954,0.28704 1.384686,0.1815 0,0 -1.047871,-0.36488 -1.047871,-0.36488 -0.347293,-0.13248 -0.660907,-0.33307 -0.973022,-0.53142 -0.155309,-0.0984 -0.636208,-0.38322 -0.362639,-0.61037 0.15456,-0.12837 0.430002,-0.0367 0.587183,0.0401 0.43786,0.21295 0.786276,0.43299 1.272413,0.53104 -0.159425,-0.24063 -0.362637,-0.3005 -0.598781,-0.43075 -0.26384,-0.14557 -0.80761,-0.46143 -1.0097,-0.6579 -0.07073,-0.0689 -0.157555,-0.15568 -0.172149,-0.25785 -0.03443,-0.24063 0.260469,-0.28367 0.433369,-0.22716 0.202464,0.0662 0.287416,0.14483 0.523935,0.18899 -0.0509,-0.0868 -0.09468,-0.1714 -0.164291,-0.2455 -0.400062,-0.42552 -0.770186,-0.10142 -1.182971,0.0726 -0.421769,0.17813 -1.008577,0.35777 -1.459535,0.20882 -0.149697,-0.0494 -0.349915,-0.16317 -0.467052,-0.26832 -0.232777,-0.20809 -0.468174,-0.64744 -0.244004,-0.92775 0.0232,0.17215 0.04603,0.33868 0.144082,0.48652 0.06587,0.0995 0.169531,0.20583 0.267581,0.27394 0.820709,0.56697 1.447934,-0.38809 2.095743,-0.70881 0.153437,-0.0759 0.390331,-0.11826 0.56136,-0.125 0.639574,-0.0251 0.81921,0.40119 1.049367,0.57371 0.176267,0.13174 0.830814,0.41242 1.046375,0.43525 -0.06213,-0.2137 -0.243257,-0.37612 -0.350665,-0.59879 -0.295273,-0.61413 -0.487632,-1.3626 -1.29599,-1.44831 -0.153813,-0.0161 -0.298643,0.0405 -0.449087,0.0637 0.181504,-0.31099 0.747355,-0.29116 1.047869,-0.18936 0.377984,0.12799 0.398566,0.17103 0.658289,0.43898 0,0 0.176266,0.16991 0.176266,0.16991 0,0 0.666146,0.84653 0.666146,0.84653 0.109278,0.10703 0.241012,0.18862 0.370498,0.26834 0,0 0.06362,-0.22306 0.06362,-0.22306 0.191236,-0.41578 0.787401,0.10629 0.946828,0.11152 0.08345,0.003 0.700204,-0.18973 1.085293,-0.14371 0.481273,0.0576 0.64706,0.33496 1.010449,0.59206 -0.118634,-0.24289 -0.167661,-0.46631 -0.377982,-0.66578 -0.632467,-0.5999 -1.365976,-0.16728 -1.979729,-0.59916 -0.102542,-0.0722 -0.195726,-0.16242 -0.261966,-0.26945 -0.129863,-0.20771 -0.237268,-0.65904 0,-0.82332 4.69e-4,0.13135 -0.0049,0.24886 0.04267,0.37423 0.361888,0.95282 1.415373,0.35516 2.127925,0.50335 0.531793,0.11077 0.639574,0.38173 0.973024,0.73164 -0.02844,-0.15905 -0.02919,-0.34917 -0.104787,-0.48651 -0.377984,-0.68673 -0.95506,-0.53404 -1.580789,-0.66352 -0.324466,-0.0674 -0.672136,-0.28817 -0.889941,-0.53406 -0.663527,-0.74958 -0.335694,-1.775 -0.816593,-2.43217 -0.178885,-0.24437 -0.498862,-0.38808 -0.799376,-0.31735 0,0 -0.336815,0.12986 -0.336815,0.12986 0.09917,-0.2833 0.257852,-0.29079 0.523937,-0.30051 0.350289,-0.0131 0.498112,-0.0117 0.785902,0.22341 0.748479,0.61114 0.520194,1.61147 1.197568,2.16011 0.397441,0.32185 1.029906,0.18862 1.496958,0.29678 0.75297,0.17476 0.85813,0.4184 1.347266,0.95094 -0.114895,-0.3967 -0.123128,-0.54527 -0.464808,-0.84541 -0.177764,-0.15569 -0.520942,-0.25411 -0.732764,-0.35366 -0.429625,-0.20171 -0.968905,-0.55912 -1.259688,-0.93447 -0.370124,-0.47753 -0.526931,-0.95132 -0.323719,-1.534 0.153438,-0.43974 0.594667,-1.10813 0.37611,-1.57181 -0.197971,-0.41954 -0.68336,-0.40382 -1.075565,-0.45583 -0.413909,-0.0551 -0.895928,-0.31849 -1.014564,-0.74174 -0.0333,-0.11901 -0.06923,-0.24999 -0.05838,-0.37424 0.03068,-0.3574 0.250741,-0.57558 0.586433,-0.67363 -0.116014,0.20321 -0.262341,0.21931 -0.339063,0.48651 -0.0973,0.33832 0.130986,0.70021 0.451335,0.81846 0.117511,0.0434 0.214439,0.0415 0.336814,0.0423 0.36713,0.002 0.561735,-0.01 0.935599,0.0482 0.164666,0.0258 0.310621,0.0737 0.449088,0.16804 0.368251,0.25149 0.523189,0.73313 0.48015,1.16838 0,0 -0.0887,0.44909 -0.0887,0.44909 0,0 -0.0449,0.29938 -0.0449,0.29938 -0.09692,0.42178 -0.154562,0.98127 0.21631,1.29563 0.628723,0.53366 1.612228,0.29191 2.318414,0.735 0.340561,0.2137 0.584564,0.45957 0.598784,0.88845 0.214065,-0.23204 0.0741,-0.39408 0,-0.63622 -0.02881,-0.0936 -0.03256,-0.16579 -0.03704,-0.26196 -0.215937,-0.0629 -0.236145,-0.1437 -0.411663,-0.24737 0,0 -0.299395,-0.13885 -0.299395,-0.13885 -0.197222,-0.10216 -0.72677,-0.38883 -0.857381,-0.5374 -0.685232,-0.77991 0.05314,-1.70653 0.03368,-2.55682 -0.0078,-0.33756 -0.09842,-0.3559 -0.186746,-0.63619 0.372368,0.11153 0.482395,0.59204 0.486514,0.93559 0,0 0,0.26197 0,0.26197 -0.006,0.49438 -0.185622,0.80238 0.05577,1.30984 0.190488,0.40081 0.414284,0.50859 0.804617,0.65642 0,0 0.203213,0.082 0.203213,0.082 0.102912,0.0285 0.160546,-0.004 0.358517,0.0898 0.503729,0.23876 0.773928,0.68485 0.823329,1.23012 0.167661,-0.15046 0.274691,-0.4461 0.244753,-0.67363 -0.03294,-0.24849 -0.240264,-0.42664 -0.282177,-0.74848 0,0 -0.261967,0 -0.261967,0 -0.07485,-0.24251 -0.224167,-0.25448 -0.36451,-0.45957 -0.279182,-0.40904 -0.335692,-0.70058 -0.271699,-1.18708 0.251114,0.0442 0.158677,0.16204 0.206956,0.37423 0.03331,0.14783 0.120881,0.33232 0.217434,0.44872 0.304255,0.36638 1.132076,0.66278 1.367095,1.31021 0.06063,0.16691 0.0423,0.45207 0.0423,0.63621 0.352532,-0.29341 0.383594,-0.75447 0.204708,-1.16014 -0.117885,-0.26797 -0.322969,-0.44198 -0.507093,-0.65792 -0.339438,-0.39745 -0.644819,-0.86 -0.632841,-1.40041 0.0078,-0.33195 0.105911,-0.66166 0.254481,-0.9573 0,0 0.342431,-0.66652 0.342431,-0.66652 0,0 0.02059,-0.25074 0.02059,-0.25074 0.0161,-0.10067 0.0247,-0.19722 0,-0.29602 -0.07447,-0.21931 -0.318481,-0.38996 -0.468176,-0.56137 0.205458,-0.0101 0.418774,0.0992 0.5535,0.26346 0.07185,0.10367 0.111149,0.20359 0,0.29791 0.09169,0.16617 0.150821,0.22005 0.156808,0.41203 0.01498,0.46893 -0.116764,0.5535 -0.165789,0.71068 -0.03481,0.11227 -0.09805,0.61787 -0.09505,0.74848 0.0064,0.26197 0.13323,0.71929 0.287416,0.92924 0,0 0.212568,0.2324 0.212568,0.2324 0,0 0.190114,0.2324 0.190114,0.2324 0.142211,0.12762 0.427755,0.24326 0.702074,0.62686 0.115265,0.16055 0.268706,0.51383 0.277314,0.71105 0.0094,0.22979 -0.06288,0.27919 -0.0232,0.52394 0.537033,-0.39332 0.347669,-0.9749 0.06512,-1.45954 z m 10.75041,-4.26633 c -0.168409,-0.0464 -0.206953,-0.0771 -0.299396,-0.22455 0.16991,0.0506 0.207332,0.0715 0.299396,0.22455 z m -13.846868,3.18103 c 0.03967,-0.18225 0.07223,-0.19835 0.224541,-0.29939 0.0082,0.16167 -0.09019,0.23278 -0.224541,0.29939 z m 14.947502,6.25354 c -0.06661,0.0797 -0.0958,0.1673 -0.14146,0.25823 -0.061,0.12201 -0.09318,0.16392 -0.135848,0.2994 0.305756,-0.0872 0.973023,-0.46518 1.160145,-0.71106 -0.299766,-0.11265 -0.658289,-0.11339 -0.882837,0.15343 z m -19.064139,0.48278 c 0.127989,0.22005 0.430374,0.30575 0.673629,0.33682 -0.135474,-0.27058 -0.393325,-0.33084 -0.673629,-0.33682 z m 19.533817,1.59426 c -0.140717,4.1e-4 -0.459568,0.14071 -0.559862,0.23952 0.35515,0 0.402303,0.012 0.711054,-0.18712 -0.05538,-0.0311 -0.08271,-0.0527 -0.151192,-0.0524 z m -27.430276,6.75128 c -0.03031,0.16729 -0.05127,0.31249 -0.224543,0.37424 0.01871,-0.19984 0.03817,-0.27918 0.224543,-0.37424 z"
         id="Selezione-3"
         inkscape:connector-curvature="0"
         style="fill:#000000;fill-opacity:1;stroke:none;stroke-width:0.03742395;stroke-opacity:1" />
      <path
         style="fill:url(#radialGradient4583);fill-opacity:1;stroke:none;stroke-width:0.03742395;stroke-opacity:1"
         d="m 69.275228,263.66718 c -0.271905,0.84311 0.57156,1.38344 1.014174,1.95501 0.318681,0.56414 -0.23045,1.05191 -0.618678,1.38726 -0.588207,0.55264 -1.419112,1.1467 -1.128394,2.07754 0.06312,0.87196 1.089559,1.56454 0.713827,2.48657 -0.11395,0.26294 -0.368761,0.41919 -0.58474,0.5886 -0.148035,-0.49505 0.117368,-1.0474 -0.268992,-1.47552 -0.434038,-0.50235 -1.122571,-0.83188 -1.307736,-1.52208 -0.164439,-0.42263 -0.120196,-0.88033 -0.03576,-1.31489 -0.454257,0.69112 -0.382834,1.63399 0.223334,2.21684 0.510337,0.45577 0.970514,1.23531 0.564022,1.89816 -0.131343,0.21915 -0.355755,0.35692 -0.537251,0.52919 0.052,-0.56645 0.05875,-1.23906 -0.496572,-1.56814 -0.163067,-0.0417 0.08733,0.37387 0.157536,0.53049 0.222655,0.49286 -0.108972,1.03482 -0.508095,1.32186 0.03535,-0.68373 -0.347267,-1.50029 -1.110623,-1.54666 -0.669287,-0.15019 -1.254811,-0.70661 -1.250528,-1.42087 -0.0064,-0.25029 0.06367,-0.52104 0.06674,-0.75087 -0.188617,0.63722 -0.520157,1.60108 0.235804,1.99553 0.454726,0.25057 0.901554,0.52601 1.370262,0.73308 -0.01554,0.4141 0.377588,0.89714 -0.0606,1.23092 -0.43405,0.65636 -0.110129,-0.41875 -0.445295,-0.6493 -0.750755,-0.87157 -2.299949,-0.26249 -2.910686,-1.32478 -0.45152,-0.91333 0.55525,-2.04473 -0.234886,-2.83881 -0.408261,-0.34189 -1.187991,-0.21716 -1.570311,-0.24571 0.536543,0.13097 1.364668,0.0722 1.542256,0.756 0.213527,0.9012 -0.864585,1.68871 -0.356822,2.57624 0.415926,0.87372 1.372529,1.18453 2.164404,1.5991 0.528473,0.36666 0.566146,1.0618 0.717311,1.62587 -0.597991,-0.53584 -1.05489,-1.4179 -1.973524,-1.40969 -0.645699,0.0154 -1.425221,-0.0973 -1.708565,-0.77654 -0.222386,-0.42369 -0.334466,-1.12574 -0.549536,-1.37283 0.302694,0.83296 0.109253,1.98023 1.051031,2.4455 0.630245,0.3429 1.575336,0.0484 2.001394,0.77269 0.264796,0.37193 0.182034,0.86721 0.300896,1.2872 -0.500696,-0.474 -0.922258,-1.32992 -1.742121,-1.13831 -0.262517,0.0224 -0.523785,0.0673 -0.787906,0.066 0.688423,-0.019 1.526959,0.17527 1.782095,0.90324 0.242211,0.53457 0.650577,1.23685 -0.112433,0.53004 -0.415122,-0.35865 -0.901891,-0.77272 -1.494183,-0.5592 -0.345408,0.1112 -0.713883,0.16457 -1.013625,-0.0922 -0.228658,-0.17448 -0.404961,-0.0114 -0.387903,0.26447 -0.06244,0.28852 -0.4271,-0.12422 -0.610869,-0.23348 -0.375146,-0.41609 -0.840457,-1.14513 -1.239893,-1.35175 0.479273,0.49372 0.613576,1.20628 1.018392,1.74451 0.280084,0.4256 -0.03902,0.40101 -0.364707,0.28934 -0.553123,-0.14754 -1.033874,-0.45386 -1.421971,-0.86491 -0.71132,-0.34719 -1.310695,0.26142 -1.835269,0.64543 -0.297195,0.16521 -0.410391,0.22522 -0.0029,0.10635 0.544789,-0.12768 1.178804,-0.74389 1.719384,-0.26001 0.226085,0.19058 0.324871,0.4826 0.484625,0.72263 -0.401844,0.033 -0.77121,-0.31884 -1.143445,-0.26166 0.533412,0.71963 1.658459,0.77338 2.028716,1.66823 -0.758097,-0.056 -1.384961,-0.51522 -2.082074,-0.73546 -0.281501,0.0204 0.188265,0.2815 0.251939,0.32785 0.775863,0.56558 1.730841,0.75977 2.612357,1.09705 -0.686254,0.27026 -1.408802,0.16513 -2.092526,-0.0359 -0.297152,0.0626 -0.765394,-0.0768 -0.931295,-0.15622 0.832914,0.33941 1.299203,1.38757 2.297157,1.38438 0.871971,0.0812 1.659001,-0.73102 2.54378,-0.38103 0.481982,0.14423 0.711578,0.63384 0.985019,1.00831 -0.68346,-0.43901 -1.636979,-0.57095 -2.294223,-0.0145 -0.192297,0.15492 -0.345422,0.35276 -0.542018,0.50277 0.723742,-0.36926 1.674258,-0.79449 2.416709,-0.2193 0.282489,0.1713 0.33477,0.52218 0.32125,0.8255 -0.530232,-0.40809 -1.279364,-0.5886 -1.862321,-0.17204 -0.587495,0.30011 -0.86201,1.25283 -1.651808,1.13249 -0.531342,-0.0776 -1.103709,-0.45174 -1.545007,-0.52717 0.706828,0.28352 1.418328,1.04306 2.231697,0.6216 0.600711,-0.3445 1.104994,-1.03977 1.886426,-0.91278 0.548022,-0.007 0.968448,0.36095 1.298386,0.76132 -0.552447,-0.14214 -1.17943,-0.32964 -1.661626,0.10158 -0.717465,0.48484 -0.566615,1.63046 -1.440123,1.95666 -0.888774,0.47173 -1.706238,-0.40532 -2.524343,-0.61408 -0.748785,-0.21348 -1.321686,0.50455 -1.41207,1.17737 -0.04774,0.286 -0.408479,0.60828 -0.538533,0.68577 0.797919,-0.17275 0.763469,-1.36531 1.597631,-1.43701 0.936295,-0.0691 1.427869,0.94471 2.331263,1.01931 1.10669,0.17914 2.064663,-0.64956 2.575317,-1.55381 0.278163,-0.35246 0.749552,-0.44377 1.174799,-0.40504 0.197023,0.55306 -0.41349,0.38268 -0.641767,0.73106 -0.663489,0.69841 -0.762776,2.01546 -1.832334,2.28267 -0.469611,0.12627 -1.064335,0.0113 -1.450942,0.0849 0.924502,0.20723 2.198127,0.38657 2.767847,-0.58254 0.347826,-0.50659 0.673426,-1.33546 1.398317,-1.33029 0.317848,0.0152 0.624533,0.10777 0.935513,0.16686 -0.67442,0.21403 -1.298798,0.6625 -1.462495,1.38585 -0.153412,0.36799 -0.239921,0.79512 -0.541834,1.0778 0.586433,-0.4428 0.728382,-1.27523 1.419955,-1.61817 0.282645,-0.18119 0.639675,-0.15787 0.953847,-0.24387 -0.349671,0.493 -1.113583,0.80925 -1.045895,1.50485 0.0088,0.80081 -0.266692,1.71636 -1.069184,2.05108 -0.255297,0.11647 -0.533751,0.16519 -0.805692,0.22609 0.739322,0.011 1.666763,-0.13693 1.922367,-0.95348 0.210872,-0.43514 0.2021,-0.96013 0.516346,-1.33378 0.237387,-0.55556 0.986387,-0.53799 1.470745,-0.69531 -0.432174,0.46189 -1.066699,0.89709 -1.000238,1.61652 -0.08935,0.75947 0.412501,1.62429 -0.120652,2.30119 -0.421466,0.65442 -1.277441,0.43819 -1.919982,0.48151 -0.773453,0.12637 -0.927454,1.03716 -0.692374,1.66144 0.129781,0.37187 0.25047,0.94314 0.135687,1.23843 0.358825,-0.70592 -0.203789,-1.67009 0.420632,-2.26324 0.535257,-0.37477 1.23884,0.0435 1.826247,-0.18408 0.967553,-0.0546 1.350838,-1.18375 1.250422,-2.01654 -0.01857,-0.45727 0.0066,-1.02555 0.418208,-1.30709 0.0238,-0.41216 0.954703,0.10752 0.550269,0.39845 -0.373918,0.50607 0.0547,1.2143 0.04282,1.78554 0.124591,0.84466 -0.553655,1.48634 -1.217106,1.87175 -0.139075,-5.7e-4 -0.647787,0.62951 -0.462221,0.45331 0.221561,-0.26879 0.557073,-0.27496 0.81761,-0.47729 0.715687,-0.27188 1.435606,-0.85181 1.369163,-1.69316 0.01397,-0.66134 -0.18699,-1.35517 0.155307,-1.96729 0.03379,-0.31932 1.267961,-0.46263 1.06058,-0.2419 -0.348124,0.46443 -0.745112,1.00328 -0.539649,1.62151 0.04632,0.23761 0.196878,0.76772 0.161358,0.26606 -0.08412,-0.87126 0.520564,-1.71176 1.368797,-1.92291 -0.125914,0.58456 -0.708903,1.11141 -0.375892,1.73955 0.279658,0.73904 0.954621,1.62855 0.403579,2.40956 -0.09219,0.1574 -0.277208,0.39022 -0.339769,0.47454 0.77003,-0.57199 1.004441,-1.6755 0.490528,-2.50328 -0.340316,-0.64135 -0.145623,-1.56194 0.577985,-1.84085 0.657164,-0.50333 0.241643,0.13361 0.07842,0.49866 -0.03534,0.38816 -0.197378,0.82233 0.05079,1.18232 0.32958,0.62184 1.279113,0.77366 1.353577,1.56866 0.189625,0.8269 -0.381135,1.57378 -0.973834,2.07364 -0.477554,0.56967 -0.597141,1.4605 0.0094,1.99663 0.329001,0.2527 0.829153,0.67881 0.905624,0.99327 -0.108176,-0.79042 -1.17675,-1.24084 -0.974935,-2.12425 0.248305,-0.69777 1.014071,-1.04087 1.449936,-1.60468 0.746151,-0.80547 0.660592,-2.15189 -0.09727,-2.92637 -0.348709,-0.49402 -0.728795,-1.39156 -0.08966,-1.81748 0.416202,-0.31553 0.46477,-0.0577 0.372563,0.36653 -0.121207,1.19666 1.432023,1.45356 1.654135,2.52233 0.20711,0.67942 -0.229172,1.32356 -0.321616,1.98288 0.258133,-0.75451 0.810891,-1.50971 0.41458,-2.33805 -0.268438,-0.78007 -1.321502,-1.32882 -1.084034,-2.25517 0.141975,-0.27274 0.35227,-0.50656 0.468123,-0.79744 0.105392,0.72129 0.36582,1.46829 1.045162,1.83637 0.305483,0.23937 0.307583,0.19643 0.05317,-0.0497 -0.651185,-0.47168 -0.807489,-1.42431 -0.383784,-2.10179 0.139716,-0.29595 0.221273,0.53831 0.363064,0.77425 0.394622,0.95905 1.753573,0.81518 2.203826,1.74725 0.1088,0.1017 0.196768,0.64711 0.174323,0.24062 0.150042,-0.79377 -0.748835,-1.1424 -1.277794,-1.50141 -0.763351,-0.27766 -0.789518,-1.26356 -0.52241,-1.90422 0.09206,-0.5041 0.235766,0.49632 0.340515,0.75436 0.116765,0.77493 1.041671,0.82635 1.662174,0.85006 0.794671,0.0933 1.715047,0.74571 1.484865,1.64751 -0.215212,0.66302 -0.566105,1.4607 0.01137,2.05365 0.509244,0.50441 1.278831,0.38806 1.904213,0.60565 -0.473751,-0.40556 -1.316912,-0.21507 -1.634855,-0.85686 -0.409336,-0.8066 0.382339,-1.59068 0.310249,-2.4178 0.01291,-1.12387 -1.162435,-1.63181 -2.076573,-1.91485 -0.612059,-0.26569 -1.113966,-0.986 -0.762824,-1.64513 0.16633,-0.69288 0.405746,0.50807 0.699381,0.68413 0.479384,0.52931 1.201359,0.45837 1.841319,0.51946 0.966813,0.18648 1.221186,1.27639 1.548674,2.04577 0.154094,0.28445 0.100406,0.18156 0.0015,-0.0479 -0.248054,-0.76066 -0.206329,-1.73327 -1.009041,-2.17467 -0.608001,-0.442 -1.604633,-0.13522 -2.036966,-0.87573 -0.320045,-0.35611 -0.333369,-0.84704 -0.348205,-1.29894 0.457385,0.42693 0.71779,1.31261 1.482298,1.20029 0.305164,0.0334 0.611585,0.0161 0.917542,0.0257 -0.722169,-0.12489 -1.680268,-0.39695 -1.779343,-1.26007 0.0086,-0.22704 -0.120787,-0.96341 0.107579,-0.64693 0.359462,0.49824 0.886249,1.0889 1.575316,0.85615 0.798835,-0.26902 1.840402,-0.2746 2.406991,0.45272 -0.0077,-0.0605 -0.245187,-0.46173 -0.410181,-0.56182 -0.826689,-0.67165 -2.015851,0.20423 -2.821022,-0.54037 -0.388952,-0.28699 -0.468952,-0.79571 -0.610961,-1.2232 0.577593,0.655 1.565967,1.10786 2.385171,0.62728 0.575034,-0.32436 1.29647,-0.94643 1.976824,-0.49911 0.678431,0.32461 0.7238,1.11944 1.083851,1.68509 0.522343,0.67923 1.509757,0.36131 2.075107,-0.0966 0.140109,-0.11082 0.469385,-0.19995 0.543851,-0.21105 -0.631578,-0.027 -1.258662,0.72234 -1.875058,0.24974 -0.683977,-0.68022 -0.647784,-1.93967 -1.610651,-2.37912 -0.719914,-0.34302 -1.52217,-0.15055 -2.201992,0.18079 -0.711213,0.2766 -1.695742,-0.0767 -1.785761,-0.91405 0.652438,0.34395 1.458992,0.4562 2.102977,0.0314 0.629097,-0.42012 1.445776,-0.75624 2.174305,-0.36617 0.477878,0.20016 0.835529,0.6146 1.329923,0.78075 -0.788401,-0.49787 -1.436566,-1.53781 -2.505456,-1.2839 -0.79649,0.16993 -1.681812,0.82105 -2.478135,0.28843 -0.278207,-0.21521 -0.405621,-0.55882 -0.59776,-0.84181 0.522272,0.13188 1.092136,0.59712 1.613767,0.20719 0.441754,-0.22923 0.933702,-0.62713 1.344959,-0.76516 -0.754439,0.249 -1.67642,0.78294 -2.422943,0.20829 -0.605683,-0.15101 -1.078359,-0.23685 -0.18649,-0.40374 0.4078,-0.10544 0.86218,0.0573 1.224134,-0.24426 0.766552,-0.37451 1.698784,-0.14368 2.395807,-0.68907 0.313643,-0.29996 0.719538,-0.0824 1.073583,-0.0211 -0.448079,-0.12808 -0.88459,-0.32724 -1.173516,-0.70942 0.297246,-0.21868 0.860118,-0.38514 0.924144,-0.77342 -0.67706,0.12151 -1.217164,0.81185 -1.964906,0.60949 -0.166053,-0.52101 0.487433,-0.47466 0.760036,-0.7637 0.392605,-0.21139 0.824862,-0.80312 1.312687,-0.43824 0.579261,0.31977 1.391202,0.0626 1.51952,-0.62141 0.108399,-0.33769 0.288139,-0.70613 0.593358,-0.8816 -0.616875,0.14264 -0.69852,0.99692 -1.368613,1.05359 -0.833245,0.0411 -1.313629,-0.96462 -2.167517,-0.9168 -0.746584,-0.12813 -1.489071,0.28199 -1.792362,0.97511 -0.192549,0.48393 -0.641325,0.96845 -1.218623,0.76352 0.144237,-0.5263 0.778109,-0.82587 0.752517,-1.38823 -0.353967,-0.53996 0.275035,-1.17587 0.791757,-1.28922 0.655769,-0.17414 1.515296,0.0287 2.017164,-0.31795 -0.932829,0.44359 -2.159597,-0.39997 -2.944058,0.45804 -0.458793,0.58774 -0.666444,1.61465 -1.570128,1.6873 -0.254242,0.0242 -0.51017,0.004 -0.764986,0.0163 -0.106088,-0.46058 0.08467,-0.47189 0.44942,-0.48793 0.660406,-0.45203 0.581819,-1.49882 1.094854,-2.0157 -0.552675,0.48597 -0.561715,1.52513 -1.417571,1.65833 -0.307906,0.0429 -0.620504,0.007 -0.930011,0.0167 0.388464,-0.52545 1.123132,-0.76472 1.25823,-1.47038 0.210952,-0.50081 0.0011,-1.10809 0.316482,-1.56095 0.324664,-0.3547 0.828335,-0.42954 1.26813,-0.55486 -0.722048,-6.6e-4 -1.636262,0.21786 -1.891377,1.02114 -0.188734,0.45046 -0.187425,0.9489 -0.301264,1.41868 -0.160265,-0.95096 -0.658817,0.52377 -0.547984,-0.64757 0.09067,-0.84859 -0.153243,-1.71689 -0.0012,-2.55705 0.21536,-0.71802 1.048602,-0.95901 1.721585,-0.87097 0.669469,0.022 1.117889,-0.61769 0.994921,-1.24319 -0.03796,-0.29114 -0.167752,-0.73724 -0.210683,-0.93588 0.05042,0.59221 -0.06142,1.38949 -0.742982,1.56243 -0.677929,0.14883 -1.512292,-0.0851 -2.017163,0.52441 -0.912317,0.8616 -0.09284,2.34023 -0.953299,3.24312 -0.251737,0.36525 -0.694851,0.51971 -1.127125,0.49985 0.263615,-0.57811 0.968942,-1.00653 0.767919,-1.73754 -0.205296,-0.77892 -0.493213,-1.7103 0.07408,-2.41469 0.217837,-0.29989 0.533174,-0.50445 0.82568,-0.723 -0.534738,0.27066 -1.205831,0.45458 -1.374114,1.12016 -0.186311,0.47754 0.01534,0.98539 -0.04159,1.48366 0.127782,0.7129 -0.33666,1.47952 -1.06534,1.61903 -0.769079,0.37474 0.105898,-0.53989 0.190673,-0.84532 0.216121,-0.52744 0.116832,-1.18064 -0.213066,-1.63467 0.07019,0.59122 0.269588,1.3127 -0.213984,1.78759 -0.214291,0.3912 -0.677749,0.49101 -1.076516,0.57961 0.333084,-0.45134 0.741156,-0.92579 0.589874,-1.53181 -0.118683,-0.76469 -0.932122,-1.40767 -0.596659,-2.23903 0.298387,-0.78523 1.367881,-1.08839 1.34826,-2.01808 -0.06213,0.76047 -0.746503,1.17539 -1.276932,1.60698 -0.642236,0.53303 -0.484103,1.48101 -0.0717,2.10518 0.375004,0.64995 0.01367,1.717 -0.824034,1.71005 -0.348343,0.0184 0.27689,-0.60307 0.141745,-0.92471 -0.0135,-0.81942 -0.773474,-1.23819 -1.171682,-1.85012 -0.325929,-0.12691 -0.302482,-0.28613 -0.263491,-0.60528 0.125866,-1.06198 1.661091,-1.38521 1.50375,-2.54029 -0.222568,-0.82162 -1.448427,-1.00117 -1.464878,-1.94254 -0.01412,-0.0684 0.0202,-0.30417 0.004,-0.27523 z m -3.161159,6.749 c 0.165938,0.11188 0.283461,0.41596 0.475458,0.34399 -0.15828,-0.11135 -0.334526,-0.22727 -0.475458,-0.34399 z m 15.148622,4.69572 c 0.303085,0.0225 0.890547,0.12703 0.439519,0.43988 -0.430834,0.4036 -0.980147,0.66849 -1.546841,0.82165 0.177771,-0.53692 0.386321,-1.30888 1.107322,-1.26153 z m -19.593129,0.70777 c 0.484873,-0.0399 0.87491,0.32385 1.017475,0.76774 -0.548801,-0.0288 -1.169429,-0.19908 -1.377415,-0.77929 0.11998,0.004 0.23996,0.008 0.35994,0.0115 z m 19.535004,1.59415 c 0.260145,0.029 0.741286,0.27432 0.243504,0.39936 -0.367488,0.30527 -0.868387,0.20088 -1.303886,0.21472 0.293653,-0.28777 0.627845,-0.58869 1.060382,-0.61408 z"
         id="path4581"
         inkscape:connector-curvature="0" />
    </g>
  </g>
</svg>
