<?xml version="1.0" encoding="UTF-8" standalone="no"?>
<!-- Created with Inkscape (http://www.inkscape.org/) -->

<svg
   xmlns:dc="http://purl.org/dc/elements/1.1/"
   xmlns:cc="http://creativecommons.org/ns#"
   xmlns:rdf="http://www.w3.org/1999/02/22-rdf-syntax-ns#"
   xmlns:svg="http://www.w3.org/2000/svg"
   xmlns="http://www.w3.org/2000/svg"
   xmlns:xlink="http://www.w3.org/1999/xlink"
   xmlns:sodipodi="http://sodipodi.sourceforge.net/DTD/sodipodi-0.dtd"
   xmlns:inkscape="http://www.inkscape.org/namespaces/inkscape"
   width="447"
   height="260.50003"
   viewBox="0 0 118.26875 68.923969"
   version="1.1"
   id="svg8"
   inkscape:version="0.48.5 r10040"
   sodipodi:docname="CHAOS_v2.2.svg"
   inkscape:export-filename="/home/antonio/Documenti/Programmazione/C++/C.H.A.O.S./CHAOS v2.2.png"
   inkscape:export-xdpi="90"
   inkscape:export-ydpi="90">
  <defs
     id="defs2">
    <linearGradient
       id="linearGradient4481">
      <stop
         style="stop-color:#323232;stop-opacity:1;"
         offset="0"
         id="stop4483" />
      <stop
         id="stop4499"
         offset="0.12"
         style="stop-color:#ffffff;stop-opacity:1;" />
      <stop
         id="stop4497"
         offset="0.25"
         style="stop-color:#323232;stop-opacity:1;" />
      <stop
         id="stop4495"
         offset="0.37"
         style="stop-color:#ffffff;stop-opacity:1;" />
      <stop
         id="stop4493"
         offset="0.5"
         style="stop-color:#323232;stop-opacity:1;" />
      <stop
         id="stop4489"
         offset="0.62"
         style="stop-color:#ffffff;stop-opacity:1;" />
      <stop
         style="stop-color:#323232;stop-opacity:1;"
         offset="0.75"
         id="stop4491" />
      <stop
         id="stop4501"
         offset="0.87"
         style="stop-color:#ffffff;stop-opacity:1;" />
      <stop
         style="stop-color:#323232;stop-opacity:1;"
         offset="1"
         id="stop4485" />
    </linearGradient>
    <linearGradient
       id="linearGradient4408">
      <stop
         style="stop-color:#646464;stop-opacity:1;"
         offset="0"
         id="stop4410" />
      <stop
         id="stop4420"
         offset="0.33000001"
         style="stop-color:#646464;stop-opacity:1;" />
      <stop
         style="stop-color:#000000;stop-opacity:1;"
         offset="1"
         id="stop4412" />
    </linearGradient>
    <linearGradient
       inkscape:collect="always"
       id="linearGradient7343">
      <stop
         style="stop-color:#ff6400;stop-opacity:1"
         offset="0"
         id="stop7339" />
      <stop
         style="stop-color:#ffff00;stop-opacity:0.972"
         offset="1"
         id="stop7341" />
    </linearGradient>
    <linearGradient
       inkscape:collect="always"
       xlink:href="#linearGradient7343"
       id="linearGradient4394"
       gradientUnits="userSpaceOnUse"
       gradientTransform="matrix(2.0000086,0,0,2.0000086,37.500738,-297.00254)"
       spreadMethod="reflect"
       x1="13.93279"
       y1="291.49149"
       x2="6.2250834"
       y2="285.56772" />
    <linearGradient
       inkscape:collect="always"
       xlink:href="#linearGradient7343"
       id="linearGradient4521"
       gradientUnits="userSpaceOnUse"
       gradientTransform="matrix(2.0000086,0,0,2.0000086,37.500738,-297.00254)"
       spreadMethod="reflect"
       x1="13.93279"
       y1="291.49149"
       x2="6.2250834"
       y2="285.56772" />
    <radialGradient
       inkscape:collect="always"
       xlink:href="#linearGradient4408"
       id="radialGradient4523"
       gradientUnits="userSpaceOnUse"
       cx="375.03177"
       cy="63.962643"
       fx="375.03177"
       fy="63.962643"
       r="13.037281" />
    <linearGradient
       inkscape:collect="always"
       xlink:href="#linearGradient7343"
       id="linearGradient4548"
       gradientUnits="userSpaceOnUse"
       gradientTransform="matrix(7.5590873,0,0,7.5590873,539.73508,-1872.0488)"
       spreadMethod="reflect"
       x1="13.93279"
       y1="291.49149"
       x2="6.2250834"
       y2="285.56772" />
    <radialGradient
       inkscape:collect="always"
       xlink:href="#linearGradient4408"
       id="radialGradient4550"
       gradientUnits="userSpaceOnUse"
       cx="375.03177"
       cy="63.962643"
       fx="375.03177"
       fy="63.962643"
       r="13.037281" />
    <linearGradient
       inkscape:collect="always"
       xlink:href="#linearGradient7343"
       id="linearGradient4552"
       gradientUnits="userSpaceOnUse"
       gradientTransform="matrix(7.5590873,0,0,7.5590873,141.73507,-2117.0488)"
       spreadMethod="reflect"
       x1="13.93279"
       y1="291.49149"
       x2="6.2250834"
       y2="285.56772" />
    <linearGradient
       inkscape:collect="always"
       xlink:href="#linearGradient7343"
       id="linearGradient4566"
       gradientUnits="userSpaceOnUse"
       gradientTransform="matrix(2.0000086,0,0,2.0000086,37.500738,-297.00254)"
       spreadMethod="reflect"
       x1="13.93279"
       y1="291.49149"
       x2="6.2250834"
       y2="285.56772" />
    <linearGradient
       inkscape:collect="always"
       xlink:href="#linearGradient7343"
       id="linearGradient3032"
       gradientUnits="userSpaceOnUse"
       gradientTransform="matrix(2.0000086,0,0,2.0000086,7.36e-4,-297.00254)"
       spreadMethod="reflect"
       x1="13.93279"
       y1="291.49149"
       x2="6.2250834"
       y2="285.56772" />
    <linearGradient
       spreadMethod="reflect"
       gradientUnits="userSpaceOnUse"
       y2="289.42224"
       x2="7.1151042"
       y1="289.42224"
       x1="9.8483057"
       id="linearGradient7353"
       xlink:href="#linearGradient7351"
       inkscape:collect="always" />
    <linearGradient
       gradientTransform="matrix(2.0000086,0,0,2.0000086,8.1076389e-4,-297.00254)"
       spreadMethod="reflect"
       gradientUnits="userSpaceOnUse"
       y2="285.56772"
       x2="6.2250834"
       y1="291.49149"
       x1="13.93279"
       id="linearGradient7345"
       xlink:href="#linearGradient7343-7"
       inkscape:collect="always" />
    <linearGradient
       id="linearGradient7343-7"
       inkscape:collect="always">
      <stop
         id="stop7339-5"
         offset="0"
         style="stop-color:#ff6400;stop-opacity:1" />
      <stop
         id="stop7341-3"
         offset="1"
         style="stop-color:#ffff00;stop-opacity:0.972" />
    </linearGradient>
    <linearGradient
       id="linearGradient7351"
       inkscape:collect="always">
      <stop
         id="stop7347"
         offset="0"
         style="stop-color:#969696;stop-opacity:1" />
      <stop
         id="stop7349"
         offset="1"
         style="stop-color:#ffffff;stop-opacity:1" />
    </linearGradient>
    <linearGradient
       inkscape:collect="always"
       xlink:href="#linearGradient7343-7"
       id="linearGradient3904"
       gradientUnits="userSpaceOnUse"
       gradientTransform="matrix(2.0000086,0,0,2.0000086,-32.586307,-297.00253)"
       spreadMethod="reflect"
       x1="13.93279"
       y1="291.49149"
       x2="6.2250834"
       y2="285.56772" />
    <linearGradient
       inkscape:collect="always"
       xlink:href="#linearGradient7351"
       id="linearGradient3906"
       gradientUnits="userSpaceOnUse"
       spreadMethod="reflect"
       x1="9.8483057"
       y1="289.42224"
       x2="7.1151042"
       y2="289.42224" />
    <linearGradient
       inkscape:collect="always"
       xlink:href="#linearGradient7343"
       id="linearGradient3035"
       gradientUnits="userSpaceOnUse"
       gradientTransform="matrix(2.0000086,0,0,2.0000086,37.500738,-297.00254)"
       spreadMethod="reflect"
       x1="13.93279"
       y1="291.49149"
       x2="6.2250834"
       y2="285.56772" />
    <linearGradient
       y2="285.56772"
       x2="6.2250834"
       y1="291.49149"
       x1="13.93279"
       spreadMethod="reflect"
       gradientTransform="matrix(2.0000086,0,0,2.0000086,72.486321,-283.6257)"
       gradientUnits="userSpaceOnUse"
       id="linearGradient3850"
       xlink:href="#linearGradient7343-0"
       inkscape:collect="always" />
    <linearGradient
       y2="285.56772"
       x2="6.2250834"
       y1="291.49149"
       x1="13.93279"
       spreadMethod="reflect"
       gradientTransform="matrix(7.5590873,0,0,7.5590873,418.73506,-2117.0488)"
       gradientUnits="userSpaceOnUse"
       id="linearGradient3834"
       xlink:href="#linearGradient7343-0"
       inkscape:collect="always" />
    <radialGradient
       r="9.8994951"
       fy="56.228661"
       fx="-36.769554"
       cy="56.228661"
       cx="-36.769554"
       gradientUnits="userSpaceOnUse"
       id="radialGradient3819"
       xlink:href="#linearGradient4408-0"
       inkscape:collect="always" />
    <linearGradient
       y2="285.56772"
       x2="6.2250834"
       y1="291.49149"
       x1="13.93279"
       spreadMethod="reflect"
       gradientTransform="matrix(7.5590873,0,0,7.5590873,141.73507,-2117.0488)"
       gradientUnits="userSpaceOnUse"
       id="linearGradient3817"
       xlink:href="#linearGradient7343-0"
       inkscape:collect="always" />
    <radialGradient
       gradientUnits="userSpaceOnUse"
       r="9.8994951"
       fy="56.228661"
       fx="-36.769554"
       cy="56.228661"
       cx="-36.769554"
       id="radialGradient3805"
       xlink:href="#linearGradient4408-0"
       inkscape:collect="always" />
    <linearGradient
       y2="285.56772"
       x2="6.2250834"
       y1="291.49149"
       x1="13.93279"
       spreadMethod="reflect"
       gradientTransform="matrix(2.0000086,0,0,2.0000086,-32.586307,-297.00253)"
       gradientUnits="userSpaceOnUse"
       id="linearGradient3904-7"
       xlink:href="#linearGradient7343-7-5"
       inkscape:collect="always" />
    <linearGradient
       inkscape:collect="always"
       id="linearGradient7351-2">
      <stop
         style="stop-color:#969696;stop-opacity:1"
         offset="0"
         id="stop7347-8" />
      <stop
         style="stop-color:#ffffff;stop-opacity:1"
         offset="1"
         id="stop7349-9" />
    </linearGradient>
    <linearGradient
       inkscape:collect="always"
       id="linearGradient7343-7-5">
      <stop
         style="stop-color:#ff6400;stop-opacity:1"
         offset="0"
         id="stop7339-5-9" />
      <stop
         style="stop-color:#ffff00;stop-opacity:0.972"
         offset="1"
         id="stop7341-3-2" />
    </linearGradient>
    <linearGradient
       inkscape:collect="always"
       xlink:href="#linearGradient7343-7-5"
       id="linearGradient7345-7"
       x1="13.93279"
       y1="291.49149"
       x2="6.2250834"
       y2="285.56772"
       gradientUnits="userSpaceOnUse"
       spreadMethod="reflect"
       gradientTransform="matrix(2.0000086,0,0,2.0000086,8.1076389e-4,-297.00254)" />
    <linearGradient
       inkscape:collect="always"
       xlink:href="#linearGradient7351-2"
       id="linearGradient7353-3"
       x1="9.8483057"
       y1="289.42224"
       x2="7.1151042"
       y2="289.42224"
       gradientUnits="userSpaceOnUse"
       spreadMethod="reflect" />
    <linearGradient
       y2="285.56772"
       x2="6.2250834"
       y1="291.49149"
       x1="13.93279"
       spreadMethod="reflect"
       gradientTransform="matrix(2.0000086,0,0,2.0000086,7.36e-4,-297.00254)"
       gradientUnits="userSpaceOnUse"
       id="linearGradient3032-2"
       xlink:href="#linearGradient7343-0"
       inkscape:collect="always" />
    <linearGradient
       y2="285.56772"
       x2="6.2250834"
       y1="291.49149"
       x1="13.93279"
       spreadMethod="reflect"
       gradientTransform="matrix(2.0000086,0,0,2.0000086,37.500738,-297.00254)"
       gradientUnits="userSpaceOnUse"
       id="linearGradient4566-0"
       xlink:href="#linearGradient7343-0"
       inkscape:collect="always" />
    <linearGradient
       y2="285.56772"
       x2="6.2250834"
       y1="291.49149"
       x1="13.93279"
       spreadMethod="reflect"
       gradientTransform="matrix(7.5590873,0,0,7.5590873,141.73507,-2117.0488)"
       gradientUnits="userSpaceOnUse"
       id="linearGradient4552-2"
       xlink:href="#linearGradient7343-0"
       inkscape:collect="always" />
    <radialGradient
       r="13.037281"
       fy="63.962643"
       fx="375.03177"
       cy="63.962643"
       cx="375.03177"
       gradientUnits="userSpaceOnUse"
       id="radialGradient4550-9"
       xlink:href="#linearGradient4408-0"
       inkscape:collect="always" />
    <linearGradient
       y2="285.56772"
       x2="6.2250834"
       y1="291.49149"
       x1="13.93279"
       spreadMethod="reflect"
       gradientTransform="matrix(7.5590873,0,0,7.5590873,539.73508,-1872.0488)"
       gradientUnits="userSpaceOnUse"
       id="linearGradient4548-7"
       xlink:href="#linearGradient7343-0"
       inkscape:collect="always" />
    <radialGradient
       r="13.037281"
       fy="63.962643"
       fx="375.03177"
       cy="63.962643"
       cx="375.03177"
       gradientUnits="userSpaceOnUse"
       id="radialGradient4523-8"
       xlink:href="#linearGradient4408-0"
       inkscape:collect="always" />
    <linearGradient
       y2="285.56772"
       x2="6.2250834"
       y1="291.49149"
       x1="13.93279"
       spreadMethod="reflect"
       gradientTransform="matrix(2.0000086,0,0,2.0000086,37.500738,-297.00254)"
       gradientUnits="userSpaceOnUse"
       id="linearGradient4521-1"
       xlink:href="#linearGradient7343-0"
       inkscape:collect="always" />
    <linearGradient
       y2="285.56772"
       x2="6.2250834"
       y1="291.49149"
       x1="13.93279"
       spreadMethod="reflect"
       gradientTransform="matrix(2.0000086,0,0,2.0000086,37.500738,-297.00254)"
       gradientUnits="userSpaceOnUse"
       id="linearGradient4394-6"
       xlink:href="#linearGradient7343-0"
       inkscape:collect="always" />
    <linearGradient
       id="linearGradient7343-0"
       inkscape:collect="always">
      <stop
         id="stop7339-6"
         offset="0"
         style="stop-color:#ff6400;stop-opacity:1" />
      <stop
         id="stop7341-2"
         offset="1"
         style="stop-color:#ffff00;stop-opacity:0.972" />
    </linearGradient>
    <linearGradient
       id="linearGradient4408-0">
      <stop
         id="stop4410-9"
         offset="0"
         style="stop-color:#646464;stop-opacity:1;" />
      <stop
         style="stop-color:#646464;stop-opacity:1;"
         offset="0.33000001"
         id="stop4420-3" />
      <stop
         id="stop4412-6"
         offset="1"
         style="stop-color:#000000;stop-opacity:1;" />
    </linearGradient>
    <linearGradient
       id="linearGradient4481-7">
      <stop
         id="stop4483-5"
         offset="0"
         style="stop-color:#323232;stop-opacity:1;" />
      <stop
         style="stop-color:#ffffff;stop-opacity:1;"
         offset="0.12"
         id="stop4499-3" />
      <stop
         style="stop-color:#323232;stop-opacity:1;"
         offset="0.25"
         id="stop4497-5" />
      <stop
         style="stop-color:#ffffff;stop-opacity:1;"
         offset="0.37"
         id="stop4495-6" />
      <stop
         style="stop-color:#323232;stop-opacity:1;"
         offset="0.5"
         id="stop4493-2" />
      <stop
         style="stop-color:#ffffff;stop-opacity:1;"
         offset="0.62"
         id="stop4489-9" />
      <stop
         id="stop4491-1"
         offset="0.75"
         style="stop-color:#323232;stop-opacity:1;" />
      <stop
         style="stop-color:#ffffff;stop-opacity:1;"
         offset="0.87"
         id="stop4501-2" />
      <stop
         id="stop4485-7"
         offset="1"
         style="stop-color:#323232;stop-opacity:1;" />
    </linearGradient>
    <linearGradient
       inkscape:collect="always"
       xlink:href="#linearGradient7351"
       id="linearGradient3297"
       gradientUnits="userSpaceOnUse"
       spreadMethod="reflect"
       x1="9.8483057"
       y1="289.42224"
       x2="7.1151042"
       y2="289.42224" />
    <linearGradient
       inkscape:collect="always"
       xlink:href="#linearGradient7351"
       id="linearGradient3301"
       gradientUnits="userSpaceOnUse"
       spreadMethod="reflect"
       x1="9.8483057"
       y1="289.42224"
       x2="7.1151042"
       y2="289.42224"
       gradientTransform="matrix(1.9237749,0,0,1.9237749,38.142279,-276.69895)" />
    <linearGradient
       inkscape:collect="always"
       xlink:href="#linearGradient7351"
       id="linearGradient4085"
       gradientUnits="userSpaceOnUse"
       spreadMethod="reflect"
       x1="9.8483057"
       y1="289.42224"
       x2="7.1151042"
       y2="289.42224" />
  </defs>
  <sodipodi:namedview
     id="base"
     pagecolor="#ffffff"
     bordercolor="#666666"
     borderopacity="1.0"
     inkscape:pageopacity="0.0"
     inkscape:pageshadow="2"
     inkscape:zoom="2"
     inkscape:cx="301.49999"
     inkscape:cy="121.33758"
     inkscape:document-units="mm"
     inkscape:current-layer="layer1"
     showgrid="false"
     units="px"
     inkscape:snap-global="false"
     inkscape:window-width="1920"
     inkscape:window-height="1014"
     inkscape:window-x="0"
     inkscape:window-y="27"
     inkscape:window-maximized="1"
     inkscape:snap-bbox="false"
     inkscape:bbox-nodes="false"
     inkscape:snap-bbox-edge-midpoints="false"
     inkscape:bbox-paths="false"
     inkscape:object-paths="false"
     inkscape:object-nodes="true"
     inkscape:snap-smooth-nodes="true"
     inkscape:snap-nodes="true"
     inkscape:snap-grids="false"
     inkscape:snap-to-guides="true"
     inkscape:snap-intersection-paths="false"
     inkscape:snap-object-midpoints="false"
     inkscape:snap-center="false"
     inkscape:snap-midpoints="false"
     fit-margin-top="0"
     fit-margin-left="0"
     fit-margin-right="0"
     fit-margin-bottom="0" />
  <metadata
     id="metadata5">
    <rdf:RDF>
      <cc:Work
         rdf:about="">
        <dc:format>image/svg+xml</dc:format>
        <dc:type
           rdf:resource="http://purl.org/dc/dcmitype/StillImage" />
        <dc:title />
      </cc:Work>
    </rdf:RDF>
  </metadata>
  <g
     inkscape:label="Livello 1"
     inkscape:groupmode="layer"
     id="layer1"
     transform="translate(5.2916669,-246.06768)">
    <rect
       style="fill:none;stroke:#000000;stroke-width:0.26786026;stroke-opacity:1"
       id="rect3080"
       width="118.00089"
       height="68.656105"
       x="-5.1577377"
       y="246.20161" />
    <g
       id="g3077">
      <path
         inkscape:connector-curvature="0"
         style="fill:url(#linearGradient3032);fill-opacity:1;stroke:none"
         d="m 16.934142,263.91279 c 0,0 -5.374083,3.71078 -13.216539,5.87423 v 8.81136 c 0,8.15028 5.639004,15.77139 13.216539,17.62172 7.577285,-1.85033 13.216535,-9.47144 13.216535,-17.62172 v -8.81136 c -7.8422,-2.16345 -13.216535,-5.87423 -13.216535,-5.87423 z"
         id="path3072" />
      <path
         inkscape:connector-curvature="0"
         id="path3078"
         d="m 16.929889,264.86138 -2.695443,5.50664 c 0,0 0.856295,-0.40016 1.694987,-0.64492 l 0,7.92923 -5.18418,-5.17591 c 0.768247,-0.4226 1.670183,-0.74414 1.670183,-0.74414 l -5.804297,-1.98438 1.984375,5.8043 c 0,0 0.324977,-0.8882 0.74414,-1.65365 l 5.175912,5.16765 -5.101498,0 c 0.244759,-0.83869 0.644922,-1.70326 0.644922,-1.70326 l -5.514909,2.70371 5.514909,2.70371 c 0,0 -0.400163,-0.86456 -0.644922,-1.70325 l 5.101498,0 -3.852995,3.84473 C 10.243408,284.14639 9.91843,283.25819 9.91843,283.25819 l -1.984375,5.8043 5.804297,-1.98438 c 0,0 -0.901935,-0.32154 -1.670182,-0.74414 l 3.861263,-3.85299 0,7.92923 c -0.838692,-0.24476 -1.694987,-0.64492 -1.694987,-0.64492 l 2.695443,5.50664 2.703711,-5.50664 c 0,0 -0.861425,0.40875 -1.703255,0.65319 l 0,-7.9375 3.861263,3.85299 c -0.766858,0.42088 -1.661914,0.74414 -1.661914,0.74414 l 5.804297,1.98438 -1.984375,-5.8043 c 0,0 -0.32498,0.8882 -0.744141,1.65365 l -3.861263,-3.84473 5.109766,0 c -0.244761,0.83869 -0.644922,1.70325 -0.644922,1.70325 l 5.506641,-2.70371 -5.506641,-2.70371 c 0,0 0.400161,0.86457 0.644922,1.70326 l -5.109766,0 5.175912,-5.16765 c 0.41916,0.76545 0.74414,1.65365 0.74414,1.65365 l 1.984375,-5.8043 -5.804297,1.98438 c 0,0 0.901933,0.32154 1.670183,0.74414 l -5.18418,5.17591 0,-7.9375 c 0.84183,0.24444 1.703255,0.65319 1.703255,0.65319 l -2.703711,-5.50664 z m -0.413411,14.20482 0.413411,0 0.413411,0 0.587045,0.58704 0,0.82683 -0.587045,0.58704 -0.413411,0 -0.413411,0 -0.587045,-0.58704 0,-0.82683 0.587045,-0.58704 z"
         style="fill:#646464;fill-opacity:1;fill-rule:nonzero;stroke:none" />
      <path
         inkscape:connector-curvature="0"
         id="path3140"
         d="m 16.933269,263.13317 c 0,0 -5.633505,3.88992 -13.85452,6.15779 v 9.23668 c 0,8.5437 5.911205,16.53269 13.85452,18.47234 7.943038,-1.93965 13.854498,-9.92864 13.854498,-18.47234 v -9.23668 c -8.22073,-2.26787 -13.854498,-6.15779 -13.854498,-6.15779 z m 0,1.72497 c 0,0 5.060278,3.49355 12.443728,5.53044 v 8.29616 c 0,7.67352 -5.3097,14.84819 -12.443728,16.59027 C 9.798998,293.53293 4.489515,286.35826 4.489515,278.68474 v -8.29616 c 7.383692,-2.03689 12.443754,-5.53044 12.443754,-5.53044 z"
         style="fill:#000000;fill-opacity:1;stroke:none" />
      <g
         transform="matrix(1.9237749,0,0,1.9237749,0.6419282,-276.69895)"
         id="g7359">
        <rect
           style="fill:url(#linearGradient3906);fill-opacity:1;fill-rule:nonzero;stroke:none"
           id="rect6937"
           width="4.5941296"
           height="3.8286245"
           x="6.1696014"
           y="287.85382" />
        <path
           inkscape:connector-curvature="0"
           style="stroke-width:0.35277778"
           d="m 8.4666666,284.82915 c -0.9736659,0 -1.7637168,0.79006 -1.7637168,1.76372 v 0.7059 H 6.3499999 c -0.3915841,0 -0.7053834,0.31379 -0.7053834,0.70538 v 3.52795 c 0,0.38806 0.3137993,0.70538 0.7053834,0.70538 h 4.2333331 c 0.388055,0 0.705384,-0.31732 0.705384,-0.70538 v -3.52795 c 0,-0.38806 -0.317329,-0.70538 -0.705384,-0.70538 h -0.35295 v -0.7059 c 0,-0.97366 -0.7900495,-1.76372 -1.7637164,-1.76372 z m 0,0.70538 c 0.585611,0 1.0583333,0.47273 1.0583333,1.05834 v 0.7059 H 7.4083332 v -0.7059 c 0,-0.58561 0.4727223,-1.05834 1.0583334,-1.05834 z m -2.1166667,2.46962 h 4.2333331 v 3.52795 H 6.3499999 z m 2.1161499,0.45889 c -0.391583,0 -0.7053834,0.3138 -0.7053834,0.70538 0,0.25092 0.1320811,0.47119 0.3307292,0.59635 v 0.95963 h 0.7493082 v -0.96067 c 0.1978681,-0.12534 0.3312462,-0.34505 0.3312462,-0.59531 -6e-7,-0.38805 -0.3178443,-0.70538 -0.7059002,-0.70538 z"
           id="path4624" />
      </g>
    </g>
    <g
       id="g3085">
      <path
         inkscape:connector-curvature="0"
         id="path3807"
         d="m 54.438087,263.91054 c 0,0 -5.378442,3.71526 -13.220899,5.87871 l 0,8.80567 c 0,4.00973 1.373752,7.89213 3.662826,11.02155 l 0.553971,-0.55397 19.31458,-19.31459 0.64493,-0.64492 c -6.593955,-2.1786 -10.955408,-5.19245 -10.955408,-5.19245 z"
         style="fill:#ffff00;fill-opacity:1;stroke:none" />
      <path
         inkscape:connector-curvature="0"
         id="path3828"
         d="m 65.393495,269.10299 -0.64493,0.64493 -19.314579,19.31458 -0.553972,0.55397 c 2.363759,3.23152 5.708494,5.6663 9.558073,6.60632 7.577292,-1.85033 13.212628,-9.47759 13.212628,-17.62787 l 0,-8.80566 c -0.78017,-0.21523 -1.52876,-0.44559 -2.25722,-0.68627 z"
         style="fill:#ff8000;fill-opacity:1;stroke:none" />
      <path
         style="fill:#646464;fill-opacity:1;fill-rule:nonzero;stroke:none"
         d="m 54.429891,264.86138 -2.695443,5.50664 c 0,0 0.856295,-0.40016 1.694987,-0.64492 l 0,7.92923 -5.18418,-5.17591 c 0.768247,-0.4226 1.670183,-0.74414 1.670183,-0.74414 l -5.804297,-1.98438 1.984375,5.8043 c 0,0 0.324977,-0.8882 0.74414,-1.65365 l 5.175912,5.16765 -5.101498,0 c 0.244759,-0.83869 0.644922,-1.70326 0.644922,-1.70326 l -5.514909,2.70371 5.514909,2.70371 c 0,0 -0.400163,-0.86456 -0.644922,-1.70325 l 5.101498,0 -3.852995,3.84473 c -0.419163,-0.76545 -0.744141,-1.65365 -0.744141,-1.65365 l -1.984375,5.8043 5.804297,-1.98438 c 0,0 -0.901935,-0.32154 -1.670182,-0.74414 l 3.861263,-3.85299 0,7.92923 c -0.838692,-0.24476 -1.694987,-0.64492 -1.694987,-0.64492 l 2.695443,5.50664 2.703711,-5.50664 c 0,0 -0.861425,0.40875 -1.703255,0.65319 l 0,-7.9375 3.861263,3.85299 c -0.766858,0.42088 -1.661914,0.74414 -1.661914,0.74414 l 5.804297,1.98438 -1.984375,-5.8043 c 0,0 -0.32498,0.8882 -0.744141,1.65365 l -3.861263,-3.84473 5.109766,0 c -0.244761,0.83869 -0.644922,1.70325 -0.644922,1.70325 l 5.506641,-2.70371 -5.506641,-2.70371 c 0,0 0.400161,0.86457 0.644922,1.70326 l -5.109766,0 5.175912,-5.16765 c 0.41916,0.76545 0.74414,1.65365 0.74414,1.65365 l 1.984375,-5.8043 -5.804297,1.98438 c 0,0 0.901933,0.32154 1.670183,0.74414 l -5.18418,5.17591 0,-7.9375 c 0.84183,0.24444 1.703255,0.65319 1.703255,0.65319 l -2.703711,-5.50664 z m -0.413411,14.20482 0.413411,0 0.413411,0 0.587045,0.58704 0,0.82683 -0.587045,0.58704 -0.413411,0 -0.413411,0 -0.587045,-0.58704 0,-0.82683 0.587045,-0.58704 z"
         id="path3025"
         inkscape:connector-curvature="0" />
      <path
         style="fill:#000000;fill-opacity:1;stroke:none"
         d="m 54.433271,263.13317 c 0,0 -5.633505,3.88992 -13.85452,6.15779 v 9.23668 c 0,8.5437 5.911205,16.53269 13.85452,18.47234 7.943038,-1.93965 13.854498,-9.92864 13.854498,-18.47234 v -9.23668 c -8.22073,-2.26787 -13.854498,-6.15779 -13.854498,-6.15779 z m 0,1.72497 c 0,0 5.060278,3.49355 12.443728,5.53044 v 8.29616 c 0,7.67352 -5.3097,14.84819 -12.443728,16.59027 C 47.299,293.53293 41.989517,286.35826 41.989517,278.68474 v -8.29616 c 7.383692,-2.03689 12.443754,-5.53044 12.443754,-5.53044 z"
         id="path3027"
         inkscape:connector-curvature="0" />
      <rect
         style="fill:#c8c8c8;fill-opacity:1;fill-rule:nonzero;stroke:none"
         id="rect3291"
         width="8.8380709"
         height="7.3654118"
         x="50.011204"
         y="277.06702" />
      <path
         inkscape:connector-curvature="0"
         style="stroke-width:0.35277778"
         d="m 54.43024,271.24822 c -1.873114,0 -3.392994,1.5199 -3.392994,3.393 v 1.35799 h -0.678997 c -0.753319,0 -1.356998,0.60366 -1.356998,1.35699 v 6.78699 c 0,0.74654 0.603679,1.35699 1.356998,1.35699 h 8.14398 c 0.746531,0 1.357,-0.61045 1.357,-1.35699 v -6.78699 c 0,-0.74654 -0.610469,-1.35699 -1.357,-1.35699 h -0.678996 v -1.35799 c 0,-1.8731 -1.519877,-3.393 -3.392993,-3.393 z m 0,1.35699 c 1.126583,0 2.035995,0.90943 2.035995,2.03601 v 1.35799 h -4.071991 v -1.35799 c 0,-1.12658 0.909412,-2.03601 2.035996,-2.03601 z m -4.071991,4.75099 h 8.14398 v 6.78699 h -8.14398 z m 4.070996,0.88281 c -0.753317,0 -1.356998,0.60368 -1.356998,1.35699 0,0.48271 0.254094,0.90646 0.636248,1.14724 v 1.84611 h 1.4415 v -1.84811 c 0.380654,-0.24113 0.637244,-0.6638 0.637244,-1.14524 -2e-6,-0.74652 -0.611461,-1.35699 -1.357994,-1.35699 z"
         id="path3293" />
    </g>
    <g
       id="g3093">
      <path
         id="path4071"
         d="m 91.934145,263.91279 c 0,0 -5.374083,3.71078 -13.216539,5.87423 v 8.81136 c 0,8.15028 5.639004,15.77139 13.216539,17.62172 7.577285,-1.85033 13.216535,-9.47144 13.216535,-17.62172 v -8.81136 c -7.8422,-2.16345 -13.216535,-5.87423 -13.216535,-5.87423 z"
         style="fill:#ffffff;fill-opacity:1;stroke:none"
         inkscape:connector-curvature="0" />
      <path
         style="fill:#000000;fill-opacity:1;fill-rule:nonzero;stroke:none"
         d="m 91.929892,264.86138 -2.695443,5.50664 c 0,0 0.856295,-0.40016 1.694987,-0.64492 l 0,7.92923 -5.18418,-5.17591 c 0.768247,-0.4226 1.670183,-0.74414 1.670183,-0.74414 l -5.804297,-1.98438 1.984375,5.8043 c 0,0 0.324977,-0.8882 0.74414,-1.65365 l 5.175912,5.16765 -5.101498,0 c 0.244759,-0.83869 0.644922,-1.70326 0.644922,-1.70326 l -5.514909,2.70371 5.514909,2.70371 c 0,0 -0.400163,-0.86456 -0.644922,-1.70325 l 5.101498,0 -3.852995,3.84473 c -0.419163,-0.76545 -0.744141,-1.65365 -0.744141,-1.65365 l -1.984375,5.8043 5.804297,-1.98438 c 0,0 -0.901935,-0.32154 -1.670182,-0.74414 l 3.861263,-3.85299 0,7.92923 c -0.838692,-0.24476 -1.694987,-0.64492 -1.694987,-0.64492 l 2.695443,5.50664 2.703711,-5.50664 c 0,0 -0.861425,0.40875 -1.703255,0.65319 l 0,-7.9375 3.861263,3.85299 c -0.766858,0.42088 -1.661914,0.74414 -1.661914,0.74414 l 5.804293,1.98438 -1.984371,-5.8043 c 0,0 -0.32498,0.8882 -0.744141,1.65365 l -3.861263,-3.84473 5.109766,0 c -0.244761,0.83869 -0.644922,1.70325 -0.644922,1.70325 l 5.506641,-2.70371 -5.506641,-2.70371 c 0,0 0.400161,0.86457 0.644922,1.70326 l -5.109766,0 5.175912,-5.16765 c 0.41916,0.76545 0.744143,1.65365 0.744143,1.65365 l 1.98437,-5.8043 -5.804295,1.98438 c 0,0 0.901933,0.32154 1.670183,0.74414 l -5.18418,5.17591 0,-7.9375 c 0.84183,0.24444 1.703255,0.65319 1.703255,0.65319 l -2.703711,-5.50664 z m -0.413411,14.20482 0.413411,0 0.413411,0 0.587045,0.58704 0,0.82683 -0.587045,0.58704 -0.413411,0 -0.413411,0 -0.587045,-0.58704 0,-0.82683 0.587045,-0.58704 z"
         id="path4073"
         inkscape:connector-curvature="0" />
      <path
         style="fill:#000000;fill-opacity:1;stroke:none"
         d="m 91.933272,263.13317 c 0,0 -5.633505,3.88992 -13.85452,6.15779 v 9.23668 c 0,8.5437 5.911205,16.53269 13.85452,18.47234 7.943038,-1.93965 13.854498,-9.92864 13.854498,-18.47234 v -9.23668 c -8.22073,-2.26787 -13.854498,-6.15779 -13.854498,-6.15779 z m 0,1.72497 c 0,0 5.060278,3.49355 12.443728,5.53044 v 8.29616 c 0,7.67352 -5.3097,14.84819 -12.443728,16.59027 -7.134271,-1.74208 -12.443754,-8.91675 -12.443754,-16.59027 v -8.29616 c 7.383692,-2.03689 12.443754,-5.53044 12.443754,-5.53044 z"
         id="path4075"
         inkscape:connector-curvature="0" />
      <rect
         style="fill:#ffffff;fill-opacity:1;fill-rule:nonzero;stroke:none"
         id="rect4079"
         width="8.8380709"
         height="7.3654118"
         x="87.510857"
         y="277.06702" />
      <path
         inkscape:connector-curvature="0"
         style="stroke-width:0.35277778"
         d="m 91.929892,271.24822 c -1.873114,0 -3.392994,1.5199 -3.392994,3.393 v 1.35799 h -0.678997 c -0.753319,0 -1.356998,0.60366 -1.356998,1.35699 v 6.78699 c 0,0.74654 0.603679,1.35699 1.356998,1.35699 h 8.14398 c 0.746531,0 1.357,-0.61045 1.357,-1.35699 v -6.78699 c 0,-0.74654 -0.610469,-1.35699 -1.357,-1.35699 h -0.678996 v -1.35799 c 0,-1.8731 -1.519877,-3.393 -3.392993,-3.393 z m 0,1.35699 c 1.126583,0 2.035995,0.90943 2.035995,2.03601 v 1.35799 h -4.071991 v -1.35799 c 0,-1.12658 0.909412,-2.03601 2.035996,-2.03601 z m -4.071991,4.75099 h 8.14398 v 6.78699 h -8.14398 z m 4.070996,0.88281 c -0.753317,0 -1.356998,0.60368 -1.356998,1.35699 0,0.48271 0.254094,0.90646 0.636248,1.14724 v 1.84611 h 1.4415 v -1.84811 c 0.380654,-0.24113 0.637244,-0.6638 0.637244,-1.14524 -2e-6,-0.74652 -0.611461,-1.35699 -1.357994,-1.35699 z"
         id="path4081" />
    </g>
    <flowRoot
       xml:space="preserve"
       id="flowRoot3850"
       style="font-size:40px;font-style:normal;font-variant:normal;font-weight:normal;font-stretch:normal;text-align:start;line-height:125%;letter-spacing:0px;word-spacing:0px;writing-mode:lr-tb;text-anchor:start;fill:#000000;fill-opacity:1;stroke:none;font-family:Arial;-inkscape-font-specification:Arial"
       transform="matrix(0.26458334,0,0,0.26458334,1.7197908,272.65832)"><flowRegion
         id="flowRegion3852"><rect
           id="rect3854"
           width="416"
           height="51.5"
           x="-17.5"
           y="-98.5" /></flowRegion><flowPara
         id="flowPara3856"
         style="font-style:normal;font-variant:normal;font-weight:bold;font-stretch:normal;font-family:Bandal;-inkscape-font-specification:Bandal Bold">C.H.A.O.S.</flowPara></flowRoot>    <flowRoot
       transform="matrix(0.26458334,0,0,0.26458334,-0.26458533,272.65832)"
       style="font-size:40px;font-style:normal;font-variant:normal;font-weight:normal;font-stretch:normal;text-align:start;line-height:125%;letter-spacing:0px;word-spacing:0px;writing-mode:lr-tb;text-anchor:start;fill:#000000;fill-opacity:1;stroke:none;font-family:Arial;-inkscape-font-specification:Arial"
       id="flowRoot3868"
       xml:space="preserve"><flowRegion
         id="flowRegion3870"><rect
           y="-98.5"
           x="-17.5"
           height="93.5"
           width="415"
           id="rect3872" /></flowRegion><flowPara
         style="font-style:normal;font-variant:normal;font-weight:bold;font-stretch:normal;text-align:end;text-anchor:end;font-family:Bandal;-inkscape-font-specification:Bandal Bold"
         id="flowPara3874">V2.2</flowPara></flowRoot>    <flowRoot
       transform="matrix(0.26458334,0,0,0.26458334,8.7312494,323.59061)"
       style="font-size:40px;font-style:normal;font-variant:normal;font-weight:normal;font-stretch:normal;text-align:start;line-height:125%;letter-spacing:0px;word-spacing:0px;writing-mode:lr-tb;text-anchor:start;fill:#000000;fill-opacity:1;stroke:none;font-family:Arial;-inkscape-font-specification:Arial"
       id="flowRoot3876"
       xml:space="preserve"><flowRegion
         id="flowRegion3878"><rect
           y="-98.5"
           x="-17.5"
           height="93.5"
           width="415"
           id="rect3880" /></flowRegion><flowPara
         style="font-style:normal;font-variant:normal;font-weight:bold;font-stretch:normal;font-family:Bandal;-inkscape-font-specification:Bandal Bold"
         id="flowPara3882">Color</flowPara></flowRoot>    <flowRoot
       xml:space="preserve"
       id="flowRoot3884"
       style="font-size:40px;font-style:normal;font-variant:normal;font-weight:normal;font-stretch:normal;text-align:start;line-height:125%;letter-spacing:0px;word-spacing:0px;writing-mode:lr-tb;text-anchor:start;fill:#000000;fill-opacity:1;stroke:none;font-family:Arial;-inkscape-font-specification:Arial"
       transform="matrix(0.26458334,0,0,0.26458334,48.815626,323.59061)"><flowRegion
         id="flowRegion3886"><rect
           id="rect3888"
           width="415"
           height="93.5"
           x="-17.5"
           y="-98.5" /></flowRegion><flowPara
         id="flowPara3890"
         style="font-style:normal;font-variant:normal;font-weight:bold;font-stretch:normal;font-family:Bandal;-inkscape-font-specification:Bandal Bold">Flat</flowPara></flowRoot>    <flowRoot
       transform="matrix(0.26458334,0,0,0.26458334,41.010417,323.59061)"
       style="font-size:40px;font-style:normal;font-variant:normal;font-weight:normal;font-stretch:normal;text-align:start;line-height:125%;letter-spacing:0px;word-spacing:0px;writing-mode:lr-tb;text-anchor:start;fill:#000000;fill-opacity:1;stroke:none;font-family:Arial;-inkscape-font-specification:Arial"
       id="flowRoot3892"
       xml:space="preserve"><flowRegion
         id="flowRegion3894"><rect
           y="-98.5"
           x="-17.5"
           height="93.5"
           width="415"
           id="rect3896" /></flowRegion><flowPara
         style="font-style:normal;font-variant:normal;font-weight:bold;font-stretch:normal;text-align:center;line-height:89.99999762%;text-anchor:middle;font-family:Bandal;-inkscape-font-specification:Bandal Bold"
         id="flowPara3898">High</flowPara><flowPara
         style="font-style:normal;font-variant:normal;font-weight:bold;font-stretch:normal;text-align:center;line-height:89.99999762%;text-anchor:middle;font-family:Bandal;-inkscape-font-specification:Bandal Bold"
         id="flowPara3900">Contrast</flowPara></flowRoot>  </g>
</svg>
