<?xml version="1.0" encoding="UTF-8" standalone="no"?>
<!-- Generator: Adobe Illustrator 16.0.4, SVG Export Plug-In . SVG Version: 6.00 Build 0)  -->

<svg
   xmlns:dc="http://purl.org/dc/elements/1.1/"
   xmlns:cc="http://creativecommons.org/ns#"
   xmlns:rdf="http://www.w3.org/1999/02/22-rdf-syntax-ns#"
   xmlns:svg="http://www.w3.org/2000/svg"
   xmlns="http://www.w3.org/2000/svg"
   xmlns:sodipodi="http://sodipodi.sourceforge.net/DTD/sodipodi-0.dtd"
   xmlns:inkscape="http://www.inkscape.org/namespaces/inkscape"
   version="1.1"
   id="Layer_1"
   x="0px"
   y="0px"
   width="85.308998"
   height="96"
   viewBox="0 0 85.308998 95.999998"
   enable-background="new 0 0 306 344.35"
   xml:space="preserve"
   sodipodi:docname="ISO_C++_Logo.svg"
   inkscape:version="0.92.1 r15371"><metadata
     id="metadata25"><rdf:RDF><cc:Work
         rdf:about=""><dc:format>image/svg+xml</dc:format><dc:type
           rdf:resource="http://purl.org/dc/dcmitype/StillImage" /><dc:title></dc:title></cc:Work></rdf:RDF></metadata><defs
     id="defs23" /><sodipodi:namedview
     pagecolor="#ffffff"
     bordercolor="#666666"
     borderopacity="1"
     objecttolerance="10"
     gridtolerance="10"
     guidetolerance="10"
     inkscape:pageopacity="0"
     inkscape:pageshadow="2"
     inkscape:window-width="1920"
     inkscape:window-height="1025"
     id="namedview21"
     showgrid="false"
     inkscape:zoom="3.6203867"
     inkscape:cx="13.814834"
     inkscape:cy="31.062975"
     inkscape:window-x="0"
     inkscape:window-y="27"
     inkscape:window-maximized="1"
     inkscape:current-layer="Layer_1" /><path
     d="m 42.654355,-6.4610352e-4 c -1.339081,0 -2.678163,0.29335000352 -3.693922,0.87992000352 L 3.6939229,21.239954 C 1.6621259,22.412814 0,25.292444 0,27.638434 v 40.72191 c 0,1.17313 0.41555326,2.47945 1.0851988,3.63893 L 42.654355,47.999664 1.0851988,71.999814 c 0.6693667,1.15947 1.5931044,2.17217 2.6087241,2.75846 l 35.2665101,20.36123 c 2.031518,1.17313 5.356327,1.17313 7.387845,0 l 35.26651,-20.36123 c 1.015898,-0.58656 1.939357,-1.59925 2.608724,-2.759 0.669366,-1.15948 1.085199,-2.4658 1.085199,-3.63893 v -40.72191 c 0,-1.17313 -0.415554,-2.47945 -1.085199,-3.63893 -0.669646,-1.15975 -1.593104,-2.17298 -2.608724,-2.75955 L 46.348278,0.8792739 C 45.332519,0.2927039 43.993437,-6.4610352e-4 42.654355,-6.4610352e-4 Z"
     id="path2"
     style="fill:#659dd2;fill-opacity:1;stroke-width:0.27878663"
     inkscape:connector-curvature="0" /><path
     style="fill:#004482;fill-opacity:1;stroke-width:0.27878663"
     d="M 84.224058,23.999504 42.654355,47.999664 1.0851988,71.999814 c 0.6693667,1.15947 1.5931044,2.17217 2.6087241,2.75846 l 35.2665101,20.36123 c 2.031518,1.17313 5.356327,1.17313 7.387845,0 l 35.26651,-20.36123 c 1.015898,-0.58656 1.939357,-1.59925 2.608724,-2.759 h 5.46e-4 c 0.669085,-1.15948 1.084653,-2.4658 1.084653,-3.63893 v -40.72191 c 0,-1.17313 -0.415568,-2.47945 -1.084653,-3.63893 z"
     id="path29"
     inkscape:connector-curvature="0" /><path
     style="fill:#00519c;fill-opacity:1;stroke-width:0.27878663"
     inkscape:connector-curvature="0"
     d="m 84.224231,71.999344 c 0.669088,-1.15947 1.08448,-2.46586 1.08448,-3.639 v -40.72208 c 0,-1.17314 -0.415392,-2.47925 -1.08448,-3.63873 l -41.569876,23.99991 z"
     id="path841" /><g
     id="g14"
     transform="matrix(0.27878664,0,0,0.27878664,0,-6.4610352e-4)"><polygon
       points="221,166.508 221,177.841 232.334,177.841 232.334,189.175 243.666,189.175 243.666,177.841 255,177.841 255,166.508 243.666,166.508 243.666,155.175 232.334,155.175 232.334,166.508 "
       id="polygon12"
       style="fill:#ffffff" /></g><g
     id="g18"
     transform="matrix(0.27878664,0,0,0.27878664,0,-6.4610352e-4)"><polygon
       points="263.5,166.508 263.5,177.841 274.834,177.841 274.834,189.175 286.166,189.175 286.166,177.841 297.5,177.841 297.5,166.508 286.166,166.508 286.166,155.175 274.834,155.175 274.834,166.508 "
       id="polygon16"
       style="fill:#ffffff" /></g><g
     id="g10"
     transform="matrix(0.27878664,0,0,0.27878664,0,-6.4610352e-4)"><path
       d="m 153,274.175 c -56.243,0 -102,-45.757 -102,-102 0,-56.243 45.757,-102 102,-102 36.292,0 70.139,19.53 88.331,50.968 l -44.143,25.544 C 188.083,130.951 171.15,121.175 153,121.175 c -28.122,0 -51,22.878 -51,51 0,28.121 22.878,51 51,51 18.152,0 35.085,-9.776 44.191,-25.515 l 44.143,25.543 c -18.192,31.441 -52.04,50.972 -88.334,50.972 z"
       id="path8"
       inkscape:connector-curvature="0"
       style="fill:#ffffff" /></g></svg>