<?xml version="1.0" encoding="UTF-8" standalone="no"?>
<!-- Created with Inkscape (http://www.inkscape.org/) -->

<svg
   xmlns:dc="http://purl.org/dc/elements/1.1/"
   xmlns:cc="http://creativecommons.org/ns#"
   xmlns:rdf="http://www.w3.org/1999/02/22-rdf-syntax-ns#"
   xmlns:svg="http://www.w3.org/2000/svg"
   xmlns="http://www.w3.org/2000/svg"
   xmlns:sodipodi="http://sodipodi.sourceforge.net/DTD/sodipodi-0.dtd"
   xmlns:inkscape="http://www.inkscape.org/namespaces/inkscape"
   width="128"
   height="128"
   viewBox="0 0 33.866666 33.866668"
   version="1.1"
   id="svg8"
   inkscape:version="0.92.1 r15371"
   sodipodi:docname="cypher-gtk-outline.svg">
  <defs
     id="defs2" />
  <sodipodi:namedview
     id="base"
     pagecolor="#ffffff"
     bordercolor="#666666"
     borderopacity="1.0"
     inkscape:pageopacity="0.0"
     inkscape:pageshadow="2"
     inkscape:zoom="2.8"
     inkscape:cx="32.730846"
     inkscape:cy="35.713744"
     inkscape:document-units="mm"
     inkscape:current-layer="layer1"
     showgrid="false"
     units="px"
     inkscape:snap-global="false"
     inkscape:window-width="1413"
     inkscape:window-height="829"
     inkscape:window-x="112"
     inkscape:window-y="36"
     inkscape:window-maximized="0"
     inkscape:snap-bbox="true"
     inkscape:bbox-nodes="false"
     inkscape:snap-bbox-edge-midpoints="false"
     inkscape:bbox-paths="false"
     inkscape:object-paths="true" />
  <metadata
     id="metadata5">
    <rdf:RDF>
      <cc:Work
         rdf:about="">
        <dc:format>image/svg+xml</dc:format>
        <dc:type
           rdf:resource="http://purl.org/dc/dcmitype/StillImage" />
        <dc:title></dc:title>
      </cc:Work>
    </rdf:RDF>
  </metadata>
  <g
     inkscape:label="Livello 1"
     inkscape:groupmode="layer"
     id="layer1"
     transform="translate(0,-263.13332)">
    <path
       id="path4730"
       d="m 16.93416,263.91293 c 0,0 -5.374061,3.71076 -13.2164849,5.8742 v 8.81133 c 0,8.15024 5.6389813,15.77132 13.2164849,17.62164 7.577256,-1.85032 13.216485,-9.4714 13.216485,-17.62164 v -8.81133 c -7.842167,-2.16344 -13.216485,-5.8742 -13.216485,-5.8742 z"
       style="fill:#ffffff;fill-opacity:1;stroke:none;stroke-width:1.46850848"
       inkscape:connector-curvature="0" />
    <path
       inkscape:connector-curvature="0"
       style="stroke-width:0.70555568"
       d="m 16.93416,272.65832 c -1.947332,0 -3.527434,1.58012 -3.527434,3.52744 v 1.4118 h -0.7059 c -0.783169,0 -1.410767,0.62758 -1.410767,1.41076 v 7.0559 c 0,0.77612 0.627598,1.41076 1.410767,1.41076 h 8.466668 c 0.77611,0 1.410768,-0.63464 1.410768,-1.41076 v -7.0559 c 0,-0.77612 -0.634658,-1.41076 -1.410768,-1.41076 h -0.705901 v -1.4118 c 0,-1.94732 -1.580099,-3.52744 -3.527433,-3.52744 z m 0,1.41076 c 1.171222,0 2.116667,0.94546 2.116667,2.11668 v 1.4118 h -4.233334 v -1.4118 c 0,-1.17122 0.945444,-2.11668 2.116667,-2.11668 z m -4.233334,4.93924 h 8.466668 v 7.0559 h -8.466668 z m 4.2323,0.91778 c -0.783166,0 -1.410767,0.6276 -1.410767,1.41076 0,0.50184 0.264163,0.94238 0.661459,1.1927 v 1.91926 h 1.498616 v -1.92134 c 0.395737,-0.25068 0.662493,-0.6901 0.662493,-1.19062 -10e-7,-0.7761 -0.635689,-1.41076 -1.411801,-1.41076 z"
       id="path4624" />
    <path
       id="path4738"
       d="m 14.10448,276.47258 c -0.765398,0 -1.413934,-0.48494 -1.653488,-1.16854 H 4.218047 v -1.16856 h 8.232945 c 0.239554,-0.6836 0.88809,-1.16854 1.653488,-1.16854 0.96989,0 1.752827,0.78294 1.752827,1.75282 0,0.96988 -0.782937,1.75282 -1.752827,1.75282 z"
       inkscape:connector-curvature="0"
       style="fill:#000000;fill-opacity:1;stroke-width:0.58427197"
       sodipodi:nodetypes="sccccsss" />
    <path
       sodipodi:nodetypes="sccccsss"
       style="fill:#000000;fill-opacity:1;stroke-width:0.58427197"
       inkscape:connector-curvature="0"
       d="m 16.627381,286.92362 c 0,0.7654 -0.48494,1.41394 -1.16854,1.6535 v 7.06364 h -1.16856 v -7.06364 c -0.6836,-0.23956 -1.16854,-0.8881 -1.16854,-1.6535 0,-0.96988 0.78294,-1.75282 1.75282,-1.75282 0.96988,0 1.752822,0.78294 1.75282,1.75282 z"
       id="path7209" />
    <path
       id="path7211"
       d="m 22.07023,279.77052 c 0.7654,0 1.41394,0.48494 1.6535,1.16854 h 6.211719 v 1.16856 H 23.72373 c -0.23956,0.6836 -0.8881,1.16854 -1.6535,1.16854 -0.96988,0 -1.752821,-0.78294 -1.752821,-1.75282 0,-0.96988 0.782941,-1.75282 1.752821,-1.75282 z"
       inkscape:connector-curvature="0"
       style="fill:#000000;fill-opacity:1;stroke-width:0.58427197"
       sodipodi:nodetypes="sccccsss" />
    <path
       style="fill:#000000;fill-opacity:1;stroke:none;stroke-width:1.5393945"
       d="m 16.933287,263.13331 c 0,0 -5.633481,3.8899 -13.854463,6.15776 v 9.23665 c 0,8.54366 5.9111812,16.53262 13.854463,18.47226 7.943001,-1.93964 13.854442,-9.9286 13.854442,-18.47226 v -9.23665 c -8.220701,-2.26786 -13.854442,-6.15776 -13.854442,-6.15776 z m 0,1.72496 c 0,0 5.060261,3.49354 12.443682,5.53042 v 8.29613 c 0,7.67348 -5.309681,14.84812 -12.443682,16.5902 C 9.7990453,293.53294 4.4895843,286.3583 4.4895843,278.68482 v -8.29613 c 7.3836617,-2.03688 12.4437027,-5.53042 12.4437027,-5.53042 z"
       id="path4742"
       inkscape:connector-curvature="0" />
  </g>
</svg>
